# This file uses centimeters as units for non-parametric coordinates.

v 0.038814 0.459262 -0.028200
v 0.014826 0.459262 -0.045629
v -0.014826 0.459262 -0.045629
v -0.038814 0.459262 -0.028200
v -0.047977 0.459262 0.000000
v -0.038814 0.459262 0.028200
v -0.014826 0.459262 0.045629
v 0.014826 0.459262 0.045629
v 0.038814 0.459262 0.028200
v 0.047977 0.459262 0.000000
v 0.073829 0.481314 -0.053640
v 0.028200 0.481314 -0.086791
v -0.028200 0.481314 -0.086791
v -0.073829 0.481314 -0.053640
v -0.091257 0.481314 0.000000
v -0.073829 0.481314 0.053640
v -0.028200 0.481314 0.086791
v 0.028200 0.481314 0.086791
v 0.073829 0.481314 0.053640
v 0.091257 0.481314 0.000000
v 0.101616 0.515661 -0.073829
v 0.038814 0.515661 -0.119457
v -0.038814 0.515661 -0.119457
v -0.101616 0.515661 -0.073829
v -0.125605 0.515661 0.000000
v -0.101616 0.515661 0.073829
v -0.038814 0.515661 0.119457
v 0.038814 0.515661 0.119457
v 0.101616 0.515661 0.073829
v 0.125605 0.515661 0.000000
v 0.119457 0.558942 -0.086791
v 0.045629 0.558942 -0.140430
v -0.045629 0.558942 -0.140430
v -0.119457 0.558942 -0.086791
v -0.147657 0.558942 0.000000
v -0.119457 0.558942 0.086791
v -0.045629 0.558942 0.140430
v 0.045629 0.558942 0.140430
v 0.119457 0.558942 0.086791
v 0.147657 0.558942 0.000000
v 0.125605 0.606919 -0.091257
v 0.047977 0.606919 -0.147657
v -0.047977 0.606919 -0.147657
v -0.125605 0.606919 -0.091257
v -0.155256 0.606919 0.000000
v -0.125605 0.606919 0.091257
v -0.047977 0.606919 0.147657
v 0.047977 0.606919 0.147657
v 0.125605 0.606919 0.091257
v 0.155256 0.606919 0.000000
v 0.119457 0.654895 -0.086791
v 0.045629 0.654895 -0.140430
v -0.045629 0.654895 -0.140430
v -0.119457 0.654895 -0.086791
v -0.147657 0.654895 0.000000
v -0.119457 0.654895 0.086791
v -0.045629 0.654895 0.140430
v 0.045629 0.654895 0.140430
v 0.119457 0.654895 0.086791
v 0.147657 0.654895 0.000000
v 0.101616 0.698176 -0.073829
v 0.038814 0.698176 -0.119457
v -0.038814 0.698176 -0.119457
v -0.101616 0.698176 -0.073829
v -0.125605 0.698176 0.000000
v -0.101616 0.698176 0.073829
v -0.038814 0.698176 0.119457
v 0.038814 0.698176 0.119457
v 0.101616 0.698176 0.073829
v 0.125605 0.698176 0.000000
v 0.073829 0.732523 -0.053640
v 0.028200 0.732523 -0.086791
v -0.028200 0.732523 -0.086791
v -0.073829 0.732523 -0.053640
v -0.091257 0.732523 0.000000
v -0.073829 0.732523 0.053640
v -0.028200 0.732523 0.086791
v 0.028200 0.732523 0.086791
v 0.073829 0.732523 0.053640
v 0.091257 0.732523 0.000000
v 0.038814 0.754576 -0.028200
v 0.014826 0.754576 -0.045629
v -0.014826 0.754576 -0.045629
v -0.038814 0.754576 -0.028200
v -0.047977 0.754576 0.000000
v -0.038814 0.754576 0.028200
v -0.014826 0.754576 0.045629
v 0.014826 0.754576 0.045629
v 0.038814 0.754576 0.028200
v 0.047977 0.754576 0.000000
v 0.000000 0.098454 0.000000
v 0.000000 0.762174 0.000000
vt 0.489355 0.114801
vt 0.466702 0.145980
vt 0.456289 0.069289
vt 0.413200 0.128596
vt 0.526008 0.046636
vt 0.466702 0.184520
vt 0.430048 0.033172
vt 0.526008 0.102891
vt 0.526008 0.001992
vt 0.413200 0.201904
vt 0.370741 0.114801
vt 0.595728 0.069289
vt 0.621969 0.033172
vt 0.489355 0.215700
vt 0.562662 0.114801
vt 0.456289 0.261211
vt 0.370741 0.215700
vt 0.638817 0.128596
vt 0.681276 0.114801
vt 0.526008 0.227609
vt 0.585315 0.145980
vt 0.526008 0.283864
vt 0.430048 0.297329
vt 0.638817 0.201904
vt 0.681276 0.215700
vt 0.562662 0.215700
vt 0.585315 0.184520
vt 0.595728 0.261211
vt 0.526008 0.328508
vt 0.621969 0.297329
vt 0.970742 0.114801
vt 0.970742 0.215700
vt 0.914487 0.105943
vt 0.914487 0.224557
vt 0.914487 0.009982
vt 0.970742 0.297329
vt 0.852128 0.102891
vt 0.970742 0.033172
vt 0.852128 0.001992
vt 0.914487 0.320518
vt 0.852128 0.227609
vt 0.789769 0.105943
vt 0.789769 0.009982
vt 0.852128 0.328508
vt 0.789769 0.224557
vt 0.733514 0.114801
vt 0.733514 0.033172
vt 0.789769 0.320518
vt 0.733514 0.215700
vt 0.688870 0.128596
vt 0.688870 0.069289
vt 0.733514 0.297329
vt 0.688870 0.201904
vt 0.688870 0.261211
vt 0.711455 0.620363
vt 0.711455 0.524402
vt 0.767710 0.637211
vt 0.767710 0.524402
vt 0.711455 0.428442
vt 0.830069 0.643016
vt 0.767710 0.411594
vt 0.830069 0.524402
vt 0.711455 0.369135
vt 0.892428 0.637211
vt 0.767710 0.341874
vt 0.830069 0.405788
vt 0.892428 0.524402
vt 0.948683 0.620363
vt 0.830069 0.332481
vt 0.892428 0.411594
vt 0.948683 0.524402
vt 0.993327 0.594122
vt 0.892428 0.341874
vt 0.948683 0.428442
vt 0.993327 0.524402
vt 0.948683 0.369135
vt 0.993327 0.454683
vt 0.423476 0.546189
vt 0.423476 0.445290
vt 0.479731 0.555046
vt 0.479731 0.436432
vt 0.423476 0.363660
vt 0.542090 0.558098
vt 0.479731 0.340471
vt 0.542090 0.433380
vt 0.604449 0.555046
vt 0.542090 0.332481
vt 0.604449 0.436432
vt 0.660704 0.546189
vt 0.604449 0.340471
vt 0.660704 0.445290
vt 0.705348 0.532393
vt 0.660704 0.363660
vt 0.705348 0.459085
vt 0.705348 0.591700
vt 0.660704 0.627818
vt 0.705348 0.399778
vt 0.202795 0.474935
vt 0.298756 0.474935
vt 0.185947 0.531190
vt 0.298756 0.531190
vt 0.394716 0.474935
vt 0.180142 0.593549
vt 0.411564 0.531190
vt 0.298756 0.593549
vt 0.185947 0.655908
vt 0.417370 0.593549
vt 0.298756 0.655908
vt 0.202795 0.712163
vt 0.411564 0.655908
vt 0.298756 0.712163
vt 0.229036 0.756807
vt 0.394716 0.712163
vt 0.298756 0.756807
vt 0.368475 0.756807
vt 0.184511 0.783433
vt 0.227600 0.842740
vt 0.151445 0.828945
vt 0.174098 0.860124
vt 0.114791 0.817035
vt 0.227600 0.916048
vt 0.114791 0.879394
vt 0.114791 0.760780
vt 0.174098 0.898664
vt 0.078138 0.828945
vt 0.184511 0.975355
vt 0.151445 0.929844
vt 0.045072 0.783433
vt 0.055484 0.860124
vt 0.114791 0.941753
vt 0.055484 0.898664
vt 0.114791 0.998008
vt 0.078138 0.929844
vt 0.001983 0.842740
vt 0.045072 0.975355
vt 0.001983 0.916048
vt 0.033162 0.001992
vt 0.071702 0.001992
vt 0.052432 0.470962
vt 0.102882 0.001992
vt 0.001983 0.001992
vt 0.147460 0.470962
vt 0.110806 0.470962
vt 0.147460 0.001992
vt 0.184114 0.470962
vt 0.206767 0.470962
vt 0.252156 0.470962
vt 0.213616 0.470962
vt 0.232886 0.001992
vt 0.283336 0.470962
vt 0.327862 0.470962
vt 0.291208 0.470962
vt 0.327862 0.001992
vt 0.364516 0.470962
vn 0.277577 -0.881468 -0.382053
vn 0.277577 -0.881468 -0.382053
vn 0.277577 -0.881468 -0.382053
vn 0.277577 -0.881469 -0.382052
vn -0.000000 -0.881469 -0.472242
vn -0.000000 -0.881469 -0.472243
vn -0.000000 -0.881469 -0.472243
vn -0.000000 -0.881469 -0.472243
vn -0.277577 -0.881468 -0.382053
vn -0.277577 -0.881468 -0.382053
vn -0.277577 -0.881468 -0.382053
vn -0.277577 -0.881468 -0.382052
vn -0.449129 -0.881469 -0.145931
vn -0.449130 -0.881469 -0.145931
vn -0.449130 -0.881469 -0.145931
vn -0.449130 -0.881468 -0.145931
vn -0.449130 -0.881469 0.145931
vn -0.449129 -0.881469 0.145931
vn -0.449129 -0.881469 0.145931
vn -0.449129 -0.881469 0.145932
vn -0.277577 -0.881468 0.382053
vn -0.277577 -0.881468 0.382053
vn -0.277577 -0.881468 0.382053
vn -0.277577 -0.881469 0.382052
vn 0.000000 -0.881469 0.472243
vn 0.000000 -0.881469 0.472243
vn 0.000000 -0.881469 0.472243
vn 0.000000 -0.881469 0.472243
vn 0.277577 -0.881468 0.382053
vn 0.277577 -0.881468 0.382053
vn 0.277577 -0.881468 0.382053
vn 0.277577 -0.881468 0.382052
vn 0.449129 -0.881469 0.145931
vn 0.449130 -0.881469 0.145931
vn 0.449130 -0.881469 0.145931
vn 0.449130 -0.881468 0.145931
vn 0.449130 -0.881469 -0.145931
vn 0.449129 -0.881469 -0.145931
vn 0.449129 -0.881469 -0.145931
vn 0.449129 -0.881468 -0.145932
vn 0.425919 -0.689152 -0.586227
vn 0.425919 -0.689152 -0.586227
vn 0.425919 -0.689152 -0.586227
vn 0.425919 -0.689152 -0.586227
vn -0.000000 -0.689152 -0.724616
vn -0.000000 -0.689152 -0.724616
vn -0.000000 -0.689152 -0.724616
vn 0.000000 -0.689153 -0.724616
vn -0.425919 -0.689153 -0.586227
vn -0.425919 -0.689153 -0.586227
vn -0.425919 -0.689153 -0.586227
vn -0.425919 -0.689152 -0.586227
vn -0.689151 -0.689152 -0.223919
vn -0.689151 -0.689152 -0.223919
vn -0.689151 -0.689152 -0.223919
vn -0.689151 -0.689152 -0.223919
vn -0.689151 -0.689153 0.223918
vn -0.689151 -0.689152 0.223918
vn -0.689151 -0.689152 0.223918
vn -0.689152 -0.689152 0.223919
vn -0.425919 -0.689152 0.586227
vn -0.425919 -0.689153 0.586227
vn -0.425919 -0.689153 0.586227
vn -0.425919 -0.689153 0.586227
vn 0.000000 -0.689153 0.724616
vn 0.000000 -0.689152 0.724616
vn 0.000000 -0.689152 0.724616
vn 0.000001 -0.689152 0.724617
vn 0.425919 -0.689152 0.586227
vn 0.425919 -0.689152 0.586227
vn 0.425919 -0.689152 0.586227
vn 0.425919 -0.689152 0.586227
vn 0.689151 -0.689152 0.223919
vn 0.689151 -0.689152 0.223919
vn 0.689151 -0.689152 0.223919
vn 0.689151 -0.689152 0.223919
vn 0.689151 -0.689152 -0.223918
vn 0.689151 -0.689152 -0.223918
vn 0.689151 -0.689152 -0.223918
vn 0.689152 -0.689152 -0.223919
vn 0.528952 -0.436083 -0.728040
vn 0.528952 -0.436083 -0.728039
vn 0.528952 -0.436083 -0.728039
vn 0.528952 -0.436083 -0.728039
vn 0.000000 -0.436082 -0.899907
vn 0.000000 -0.436083 -0.899907
vn 0.000000 -0.436083 -0.899907
vn 0.000000 -0.436083 -0.899907
vn -0.528952 -0.436083 -0.728039
vn -0.528952 -0.436083 -0.728039
vn -0.528952 -0.436083 -0.728039
vn -0.528952 -0.436083 -0.728040
vn -0.855862 -0.436084 -0.278086
vn -0.855862 -0.436083 -0.278086
vn -0.855862 -0.436083 -0.278086
vn -0.855862 -0.436083 -0.278086
vn -0.855862 -0.436083 0.278086
vn -0.855862 -0.436083 0.278086
vn -0.855862 -0.436083 0.278086
vn -0.855862 -0.436083 0.278086
vn -0.528952 -0.436084 0.728039
vn -0.528952 -0.436083 0.728039
vn -0.528952 -0.436083 0.728039
vn -0.528952 -0.436083 0.728040
vn 0.000001 -0.436082 0.899907
vn 0.000001 -0.436083 0.899907
vn 0.000001 -0.436083 0.899907
vn 0.000001 -0.436083 0.899906
vn 0.528952 -0.436083 0.728040
vn 0.528952 -0.436083 0.728040
vn 0.528952 -0.436083 0.728040
vn 0.528952 -0.436082 0.728040
vn 0.855862 -0.436083 0.278086
vn 0.855862 -0.436083 0.278086
vn 0.855862 -0.436083 0.278086
vn 0.855862 -0.436083 0.278086
vn 0.855862 -0.436083 -0.278086
vn 0.855862 -0.436083 -0.278086
vn 0.855862 -0.436083 -0.278086
vn 0.855862 -0.436083 -0.278086
vn 0.581227 -0.148952 -0.799992
vn 0.581228 -0.148952 -0.799992
vn 0.581228 -0.148952 -0.799992
vn 0.581228 -0.148951 -0.799992
vn 0.000000 -0.148952 -0.988845
vn 0.000000 -0.148952 -0.988844
vn 0.000000 -0.148952 -0.988844
vn 0.000000 -0.148952 -0.988845
vn -0.581228 -0.148952 -0.799992
vn -0.581228 -0.148952 -0.799992
vn -0.581228 -0.148952 -0.799992
vn -0.581228 -0.148952 -0.799992
vn -0.940447 -0.148951 -0.305570
vn -0.940447 -0.148952 -0.305570
vn -0.940447 -0.148952 -0.305570
vn -0.940447 -0.148952 -0.305569
vn -0.940447 -0.148952 0.305570
vn -0.940447 -0.148952 0.305570
vn -0.940447 -0.148952 0.305570
vn -0.940447 -0.148952 0.305570
vn -0.581227 -0.148952 0.799992
vn -0.581228 -0.148952 0.799992
vn -0.581228 -0.148952 0.799992
vn -0.581229 -0.148952 0.799991
vn 0.000001 -0.148951 0.988845
vn 0.000000 -0.148952 0.988844
vn 0.000000 -0.148952 0.988844
vn 0.000000 -0.148953 0.988844
vn 0.581228 -0.148953 0.799992
vn 0.581228 -0.148953 0.799992
vn 0.581228 -0.148953 0.799992
vn 0.581229 -0.148953 0.799991
vn 0.940446 -0.148953 0.305571
vn 0.940447 -0.148952 0.305570
vn 0.940447 -0.148952 0.305570
vn 0.940447 -0.148952 0.305569
vn 0.940447 -0.148952 -0.305570
vn 0.940447 -0.148952 -0.305570
vn 0.940447 -0.148952 -0.305570
vn 0.940447 -0.148952 -0.305570
vn 0.581228 0.148952 -0.799992
vn 0.581228 0.148952 -0.799992
vn 0.581228 0.148952 -0.799992
vn 0.581228 0.148951 -0.799992
vn 0.000000 0.148952 -0.988844
vn 0.000000 0.148952 -0.988845
vn 0.000000 0.148952 -0.988845
vn 0.000000 0.148952 -0.988845
vn -0.581229 0.148952 -0.799991
vn -0.581228 0.148952 -0.799992
vn -0.581228 0.148952 -0.799992
vn -0.581227 0.148952 -0.799993
vn -0.940447 0.148952 -0.305569
vn -0.940447 0.148952 -0.305570
vn -0.940447 0.148952 -0.305570
vn -0.940447 0.148952 -0.305570
vn -0.940447 0.148952 0.305569
vn -0.940447 0.148952 0.305570
vn -0.940447 0.148952 0.305570
vn -0.940447 0.148952 0.305570
vn -0.581228 0.148952 0.799992
vn -0.581228 0.148952 0.799992
vn -0.581228 0.148952 0.799992
vn -0.581228 0.148952 0.799992
vn 0.000000 0.148952 0.988844
vn 0.000000 0.148952 0.988844
vn 0.000000 0.148952 0.988844
vn 0.000001 0.148953 0.988844
vn 0.581229 0.148953 0.799991
vn 0.581228 0.148953 0.799992
vn 0.581228 0.148953 0.799992
vn 0.581228 0.148953 0.799992
vn 0.940447 0.148953 0.305569
vn 0.940447 0.148952 0.305570
vn 0.940447 0.148952 0.305570
vn 0.940447 0.148952 0.305571
vn 0.940447 0.148952 -0.305569
vn 0.940447 0.148952 -0.305570
vn 0.940447 0.148952 -0.305570
vn 0.940447 0.148952 -0.305570
vn 0.528952 0.436084 -0.728039
vn 0.528952 0.436084 -0.728039
vn 0.528952 0.436084 -0.728039
vn 0.528952 0.436083 -0.728040
vn 0.000000 0.436084 -0.899906
vn 0.000000 0.436083 -0.899906
vn 0.000000 0.436083 -0.899906
vn 0.000000 0.436083 -0.899907
vn -0.528953 0.436084 -0.728038
vn -0.528952 0.436083 -0.728040
vn -0.528952 0.436083 -0.728040
vn -0.528951 0.436083 -0.728041
vn -0.855862 0.436084 -0.278085
vn -0.855862 0.436084 -0.278086
vn -0.855862 0.436084 -0.278086
vn -0.855862 0.436083 -0.278087
vn -0.855862 0.436083 0.278086
vn -0.855862 0.436084 0.278086
vn -0.855862 0.436084 0.278086
vn -0.855861 0.436084 0.278087
vn -0.528952 0.436084 0.728039
vn -0.528951 0.436083 0.728040
vn -0.528951 0.436083 0.728040
vn -0.528951 0.436082 0.728041
vn 0.000001 0.436083 0.899906
vn 0.000001 0.436083 0.899906
vn 0.000001 0.436083 0.899906
vn 0.000000 0.436083 0.899906
vn 0.528952 0.436084 0.728039
vn 0.528951 0.436083 0.728040
vn 0.528951 0.436083 0.728040
vn 0.528951 0.436082 0.728041
vn 0.855862 0.436083 0.278086
vn 0.855862 0.436083 0.278087
vn 0.855862 0.436083 0.278087
vn 0.855862 0.436083 0.278087
vn 0.855862 0.436083 -0.278086
vn 0.855862 0.436084 -0.278086
vn 0.855862 0.436084 -0.278086
vn 0.855861 0.436084 -0.278087
vn 0.425919 0.689151 -0.586228
vn 0.425919 0.689151 -0.586228
vn 0.425919 0.689151 -0.586228
vn 0.425919 0.689152 -0.586228
vn 0.000000 0.689151 -0.724618
vn -0.000000 0.689152 -0.724617
vn -0.000000 0.689152 -0.724617
vn -0.000001 0.689153 -0.724616
vn -0.425920 0.689152 -0.586227
vn -0.425920 0.689153 -0.586226
vn -0.425920 0.689153 -0.586226
vn -0.425920 0.689153 -0.586226
vn -0.689152 0.689151 -0.223920
vn -0.689152 0.689152 -0.223919
vn -0.689152 0.689152 -0.223919
vn -0.689152 0.689152 -0.223918
vn -0.689152 0.689152 0.223919
vn -0.689152 0.689151 0.223919
vn -0.689152 0.689151 0.223919
vn -0.689152 0.689151 0.223920
vn -0.425920 0.689152 0.586227
vn -0.425919 0.689152 0.586227
vn -0.425919 0.689152 0.586227
vn -0.425919 0.689152 0.586228
vn 0.000001 0.689152 0.724617
vn 0.000000 0.689152 0.724617
vn 0.000000 0.689152 0.724617
vn 0.000000 0.689152 0.724617
vn 0.425920 0.689152 0.586227
vn 0.425920 0.689152 0.586227
vn 0.425920 0.689152 0.586227
vn 0.425920 0.689153 0.586226
vn 0.689152 0.689151 0.223920
vn 0.689152 0.689152 0.223919
vn 0.689152 0.689152 0.223919
vn 0.689152 0.689152 0.223918
vn 0.689152 0.689152 -0.223919
vn 0.689152 0.689151 -0.223919
vn 0.689152 0.689151 -0.223919
vn 0.689152 0.689151 -0.223920
vn 0.277578 0.881469 -0.382052
vn 0.277578 0.881468 -0.382053
vn 0.277578 0.881468 -0.382053
vn 0.277578 0.881468 -0.382053
vn -0.000000 0.881468 -0.472244
vn -0.000000 0.881468 -0.472244
vn -0.000000 0.881468 -0.472244
vn -0.000000 0.881467 -0.472245
vn -0.277578 0.881468 -0.382054
vn -0.277578 0.881468 -0.382053
vn -0.277578 0.881468 -0.382053
vn -0.277578 0.881468 -0.382053
vn -0.449131 0.881468 -0.145931
vn -0.449130 0.881468 -0.145932
vn -0.449130 0.881468 -0.145932
vn -0.449130 0.881468 -0.145933
vn -0.449130 0.881468 0.145932
vn -0.449130 0.881468 0.145931
vn -0.449130 0.881468 0.145931
vn -0.449130 0.881468 0.145930
vn -0.277578 0.881468 0.382052
vn -0.277578 0.881468 0.382053
vn -0.277578 0.881468 0.382053
vn -0.277578 0.881468 0.382053
vn 0.000000 0.881468 0.472244
vn 0.000000 0.881468 0.472243
vn 0.000000 0.881468 0.472243
vn 0.000000 0.881468 0.472243
vn 0.277578 0.881468 0.382052
vn 0.277578 0.881468 0.382054
vn 0.277578 0.881468 0.382054
vn 0.277578 0.881467 0.382056
vn 0.449131 0.881468 0.145931
vn 0.449130 0.881468 0.145932
vn 0.449130 0.881468 0.145932
vn 0.449130 0.881468 0.145933
vn 0.449130 0.881468 -0.145932
vn 0.449130 0.881468 -0.145931
vn 0.449130 0.881468 -0.145931
vn 0.449131 0.881468 -0.145930
vn 0.583141 -0.125463 -0.802624
vn 0.583141 -0.125463 -0.802624
vn 0.583141 -0.125463 -0.802624
vn -0.000000 -0.125463 -0.992098
vn -0.000000 -0.125463 -0.992098
vn -0.000000 -0.125463 -0.992098
vn -0.583141 -0.125463 -0.802624
vn -0.583141 -0.125463 -0.802624
vn -0.583141 -0.125463 -0.802624
vn -0.943541 -0.125463 -0.306575
vn -0.943541 -0.125463 -0.306575
vn -0.943541 -0.125463 -0.306575
vn -0.943541 -0.125463 0.306576
vn -0.943541 -0.125463 0.306576
vn -0.943541 -0.125463 0.306576
vn -0.583141 -0.125463 0.802625
vn -0.583141 -0.125463 0.802625
vn -0.583141 -0.125463 0.802625
vn 0.000000 -0.125463 0.992098
vn 0.000000 -0.125463 0.992098
vn 0.000000 -0.125463 0.992098
vn 0.583141 -0.125463 0.802625
vn 0.583141 -0.125463 0.802625
vn 0.583141 -0.125463 0.802625
vn 0.943541 -0.125463 0.306576
vn 0.943541 -0.125463 0.306576
vn 0.943541 -0.125463 0.306576
vn 0.943541 -0.125463 -0.306576
vn 0.943541 -0.125463 -0.306576
vn 0.943541 -0.125463 -0.306576
vn 0.096557 0.986415 -0.132900
vn 0.096557 0.986415 -0.132900
vn 0.096557 0.986415 -0.132900
vn -0.000000 0.986415 -0.164270
vn -0.000000 0.986415 -0.164270
vn -0.000000 0.986415 -0.164270
vn -0.096557 0.986415 -0.132900
vn -0.096557 0.986415 -0.132900
vn -0.096557 0.986415 -0.132900
vn -0.156233 0.986415 -0.050763
vn -0.156233 0.986415 -0.050763
vn -0.156233 0.986415 -0.050763
vn -0.156233 0.986415 0.050763
vn -0.156233 0.986415 0.050763
vn -0.156233 0.986415 0.050763
vn -0.096557 0.986415 0.132900
vn -0.096557 0.986415 0.132900
vn -0.096557 0.986415 0.132900
vn 0.000000 0.986415 0.164273
vn 0.000000 0.986415 0.164273
vn 0.000000 0.986415 0.164273
vn 0.096557 0.986415 0.132900
vn 0.096557 0.986415 0.132900
vn 0.096557 0.986415 0.132900
vn 0.156233 0.986415 0.050763
vn 0.156233 0.986415 0.050763
vn 0.156233 0.986415 0.050763
vn 0.156233 0.986415 -0.050763
vn 0.156233 0.986415 -0.050763
vn 0.156233 0.986415 -0.050763
f 1/1/1 2/2/2 11/3/3
f 11/3/3 2/2/2 12/4/4
f 2/2/5 3/6/6 12/4/7
f 12/4/7 3/6/6 13/10/8
f 3/6/9 4/14/10 13/10/11
f 13/10/11 4/14/10 14/16/12
f 4/14/13 5/20/14 14/16/15
f 14/16/15 5/20/14 15/22/16
f 5/20/17 6/26/18 15/22/19
f 15/22/19 6/26/18 16/28/20
f 6/26/21 7/27/22 16/28/23
f 16/28/23 7/27/22 17/24/24
f 7/27/25 8/21/26 17/24/27
f 17/24/27 8/21/26 18/18/28
f 8/21/29 9/15/30 18/18/31
f 18/18/31 9/15/30 19/12/32
f 9/15/33 10/8/34 19/12/35
f 19/12/35 10/8/34 20/5/36
f 10/8/37 1/1/38 20/5/39
f 20/5/39 1/1/38 11/3/40
f 11/3/41 12/4/42 21/7/43
f 21/7/43 12/4/42 22/11/44
f 12/4/45 13/10/46 22/11/47
f 22/11/47 13/10/46 23/17/48
f 13/10/49 14/16/50 23/17/51
f 23/17/51 14/16/50 24/23/52
f 14/16/53 15/22/54 24/23/55
f 24/23/55 15/22/54 25/29/56
f 15/22/57 16/28/58 25/29/59
f 25/29/59 16/28/58 26/30/60
f 16/28/61 17/24/62 26/30/63
f 26/30/63 17/24/62 27/25/64
f 17/24/65 18/18/66 27/25/67
f 27/25/67 18/18/66 28/19/68
f 18/18/69 19/12/70 28/19/71
f 28/19/71 19/12/70 29/13/72
f 19/12/73 20/5/74 29/13/75
f 29/13/75 20/5/74 30/9/76
f 20/5/77 11/3/78 30/9/79
f 30/9/79 11/3/78 21/7/80
f 21/38/81 22/31/82 31/35/83
f 31/35/83 22/31/82 32/33/84
f 22/31/85 23/32/86 32/33/87
f 32/33/87 23/32/86 33/34/88
f 23/32/89 24/36/90 33/34/91
f 33/34/91 24/36/90 34/40/92
f 24/55/93 25/56/94 34/57/95
f 34/57/95 25/56/94 35/58/96
f 25/56/97 26/59/98 35/58/99
f 35/58/99 26/59/98 36/61/100
f 26/59/101 27/63/102 36/61/103
f 36/61/103 27/63/102 37/65/104
f 27/78/105 28/79/106 37/80/107
f 37/80/107 28/79/106 38/81/108
f 28/79/109 29/82/110 38/81/111
f 38/81/111 29/82/110 39/84/112
f 29/98/113 30/99/114 39/100/115
f 39/100/115 30/99/114 40/101/116
f 30/99/117 21/102/118 40/101/119
f 40/101/119 21/102/118 31/104/120
f 31/35/121 32/33/122 41/39/123
f 41/39/123 32/33/122 42/37/124
f 32/33/125 33/34/126 42/37/127
f 42/37/127 33/34/126 43/41/128
f 33/34/129 34/40/130 43/41/131
f 43/41/131 34/40/130 44/44/132
f 34/57/133 35/58/134 44/60/135
f 44/60/135 35/58/134 45/62/136
f 35/58/137 36/61/138 45/62/139
f 45/62/139 36/61/138 46/66/140
f 36/61/141 37/65/142 46/66/143
f 46/66/143 37/65/142 47/69/144
f 37/80/145 38/81/146 47/83/147
f 47/83/147 38/81/146 48/85/148
f 38/81/149 39/84/150 48/85/151
f 48/85/151 39/84/150 49/87/152
f 39/100/153 40/101/154 49/103/155
f 49/103/155 40/101/154 50/105/156
f 40/101/157 31/104/158 50/105/159
f 50/105/159 31/104/158 41/107/160
f 41/39/161 42/37/162 51/43/163
f 51/43/163 42/37/162 52/42/164
f 42/37/165 43/41/166 52/42/167
f 52/42/167 43/41/166 53/45/168
f 43/41/169 44/44/170 53/45/171
f 53/45/171 44/44/170 54/48/172
f 44/60/173 45/62/174 54/64/175
f 54/64/175 45/62/174 55/67/176
f 45/62/177 46/66/178 55/67/179
f 55/67/179 46/66/178 56/70/180
f 46/66/181 47/69/182 56/70/183
f 56/70/183 47/69/182 57/73/184
f 47/83/185 48/85/186 57/86/187
f 57/86/187 48/85/186 58/88/188
f 48/85/189 49/87/190 58/88/191
f 58/88/191 49/87/190 59/90/192
f 49/103/193 50/105/194 59/106/195
f 59/106/195 50/105/194 60/108/196
f 50/105/197 41/107/198 60/108/199
f 60/108/199 41/107/198 51/110/200
f 51/43/201 52/42/202 61/47/203
f 61/47/203 52/42/202 62/46/204
f 52/42/205 53/45/206 62/46/207
f 62/46/207 53/45/206 63/49/208
f 53/45/209 54/48/210 63/49/211
f 63/49/211 54/48/210 64/52/212
f 54/64/213 55/67/214 64/68/215
f 64/68/215 55/67/214 65/71/216
f 55/67/217 56/70/218 65/71/219
f 65/71/219 56/70/218 66/74/220
f 56/70/221 57/73/222 66/74/223
f 66/74/223 57/73/222 67/76/224
f 57/86/225 58/88/226 67/89/227
f 67/89/227 58/88/226 68/91/228
f 58/88/229 59/90/230 68/91/231
f 68/91/231 59/90/230 69/93/232
f 59/106/233 60/108/234 69/109/235
f 69/109/235 60/108/234 70/111/236
f 60/108/237 51/110/238 70/111/239
f 70/111/239 51/110/238 61/113/240
f 61/47/241 62/46/242 71/51/243
f 71/51/243 62/46/242 72/50/244
f 62/46/245 63/49/246 72/50/247
f 72/50/247 63/49/246 73/53/248
f 63/49/249 64/52/250 73/53/251
f 73/53/251 64/52/250 74/54/252
f 64/68/253 65/71/254 74/72/255
f 74/72/255 65/71/254 75/75/256
f 65/71/257 66/74/258 75/75/259
f 75/75/259 66/74/258 76/77/260
f 66/96/261 67/89/262 76/95/263
f 76/95/263 67/89/262 77/92/264
f 67/89/265 68/91/266 77/92/267
f 77/92/267 68/91/266 78/94/268
f 68/91/269 69/93/270 78/94/271
f 78/94/271 69/93/270 79/97/272
f 69/109/273 70/111/274 79/112/275
f 79/112/275 70/111/274 80/114/276
f 70/111/277 61/113/278 80/114/279
f 80/114/279 61/113/278 71/115/280
f 71/116/281 72/117/282 81/118/283
f 81/118/283 72/117/282 82/119/284
f 72/117/285 73/121/286 82/119/287
f 82/119/287 73/121/286 83/124/288
f 73/121/289 74/126/290 83/124/291
f 83/124/291 74/126/290 84/127/292
f 74/126/293 75/132/294 84/127/295
f 84/127/295 75/132/294 85/130/296
f 75/132/297 76/135/298 85/130/299
f 85/130/299 76/135/298 86/133/300
f 76/135/301 77/136/302 86/133/303
f 86/133/303 77/136/302 87/131/304
f 77/136/305 78/134/306 87/131/307
f 87/131/307 78/134/306 88/129/308
f 78/134/309 79/128/310 88/129/311
f 88/129/311 79/128/310 89/125/312
f 79/128/313 80/123/314 89/125/315
f 89/125/315 80/123/314 90/120/316
f 80/123/317 71/116/318 90/120/319
f 90/120/319 71/116/318 81/118/320
f 2/138/321 1/140/322 91/139/323
f 3/137/324 2/138/325 91/139/326
f 4/141/327 3/137/328 91/139/329
f 5/142/330 4/143/331 91/144/332
f 6/145/333 5/142/334 91/144/335
f 7/146/336 6/145/337 91/144/338
f 8/147/339 7/148/340 91/149/341
f 9/150/342 8/147/343 91/149/344
f 10/151/345 9/152/346 91/153/347
f 1/154/348 10/151/349 91/153/350
f 81/118/351 82/119/352 92/122/353
f 82/119/354 83/124/355 92/122/356
f 83/124/357 84/127/358 92/122/359
f 84/127/360 85/130/361 92/122/362
f 85/130/363 86/133/364 92/122/365
f 86/133/366 87/131/367 92/122/368
f 87/131/369 88/129/370 92/122/371
f 88/129/372 89/125/373 92/122/374
f 89/125/375 90/120/376 92/122/377
f 90/120/378 81/118/379 92/122/380
