# This file uses centimeters as units for non-parametric coordinates.

v -0.478429 0.005570 0.478429
v 0.478429 0.005570 0.478429
v -0.478429 0.092884 0.478429
v 0.478429 0.092884 0.478429
v -0.478429 0.092884 -0.478429
v 0.478429 0.092884 -0.478429
v -0.478429 0.005570 -0.478429
v 0.478429 0.005570 -0.478429
vt 0.316934 0.002263
vt 0.770986 0.002263
vt 0.316934 0.056016
vt 0.770986 0.056016
vt 0.318171 0.056479
vt 0.772224 0.056479
vt 0.318171 0.510531
vt 0.772224 0.510531
vt 0.317763 0.510862
vt 0.771815 0.510862
vt 0.317763 0.546780
vt 0.771815 0.546780
vt 0.319110 0.546822
vt 0.773162 0.546822
vt 0.319110 1.000874
vt 0.773162 1.000874
vt 0.013014 0.668528
vt 0.037639 0.668528
vt 0.013014 0.998008
vt 0.037639 0.998008
vt 0.962249 0.668528
vt 0.988313 0.668528
vt 0.962249 0.998008
vt 0.988313 0.998008
vn 0.000000 0.000000 1.000000
vn 0.000000 0.000000 1.000000
vn 0.000000 0.000000 1.000000
vn 0.000000 0.000000 1.000000
vn 0.000000 0.000000 1.000000
vn 0.000000 0.000000 1.000000
vn 0.000000 1.000000 0.000000
vn 0.000000 1.000000 0.000000
vn 0.000000 1.000000 0.000000
vn 0.000000 1.000000 0.000000
vn 0.000000 1.000000 0.000000
vn 0.000000 1.000000 0.000000
vn 0.000000 0.000000 -1.000000
vn 0.000000 0.000000 -1.000000
vn 0.000000 0.000000 -1.000000
vn 0.000000 0.000000 -1.000000
vn 0.000000 0.000000 -1.000000
vn 0.000000 0.000000 -1.000000
vn 0.000000 -1.000000 0.000000
vn 0.000000 -1.000000 0.000000
vn 0.000000 -1.000000 0.000000
vn 0.000000 -1.000000 0.000000
vn 0.000000 -1.000000 0.000000
vn 0.000000 -1.000000 0.000000
vn 1.000000 0.000000 0.000000
vn 1.000000 0.000000 0.000000
vn 1.000000 0.000000 0.000000
vn 1.000000 0.000000 0.000000
vn 1.000000 0.000000 0.000000
vn 1.000000 0.000000 0.000000
vn -1.000000 0.000000 0.000000
vn -1.000000 0.000000 0.000000
vn -1.000000 0.000000 0.000000
vn -1.000000 0.000000 0.000000
vn -1.000000 0.000000 0.000000
vn -1.000000 0.000000 0.000000
f 1/1/1 2/2/2 3/3/3
f 3/3/4 2/2/5 4/4/6
f 3/5/7 4/6/8 5/7/9
f 5/7/10 4/6/11 6/8/12
f 5/9/13 6/10/14 7/11/15
f 7/11/16 6/10/17 8/12/18
f 7/13/19 8/14/20 1/15/21
f 1/15/22 8/14/23 2/16/24
f 2/17/25 8/18/26 4/19/27
f 4/19/28 8/18/29 6/20/30
f 7/21/31 1/22/32 5/23/33
f 5/23/34 1/22/35 3/24/36
