# This file uses centimeters as units for non-parametric coordinates.

v -0.319445 0.002366 -0.140810
v -0.208334 0.002366 -0.140810
v -0.125000 0.002366 -0.140810
v 0.319445 0.002366 -0.140810
v -0.319445 0.113477 -0.140810
v -0.208334 0.113477 -0.140810
v -0.125000 0.113477 -0.140810
v 0.319445 0.113477 -0.140810
v -0.319445 0.224589 -0.140810
v -0.208334 0.224589 -0.140810
v -0.125000 0.224589 -0.140810
v -0.097223 0.224589 -0.140810
v -0.013889 0.224589 -0.140810
v -0.208334 0.335700 -0.140810
v -0.125000 0.335700 -0.140810
v -0.097223 0.335700 -0.140810
v -0.013889 0.335700 -0.140810
v 0.013889 0.335700 -0.140810
v 0.097221 0.335700 -0.140810
v -0.097223 0.446811 -0.140810
v -0.013889 0.446811 -0.140810
v 0.013889 0.446811 -0.140810
v 0.097221 0.446811 -0.140810
v 0.125000 0.446811 -0.140810
v 0.208334 0.446811 -0.140810
v 0.013889 0.557922 -0.140810
v 0.097221 0.557922 -0.140810
v 0.125000 0.557922 -0.140810
v 0.208334 0.557922 -0.140810
v 0.319445 0.557922 -0.140810
v -0.319445 0.669033 -0.140810
v -0.208334 0.669033 -0.140810
v -0.097223 0.669033 -0.140810
v -0.319445 0.863477 -0.140810
v -0.208334 0.863477 -0.140810
v -0.097223 0.863477 -0.140810
v 0.125000 0.863477 -0.140810
v 0.208334 0.863477 -0.140810
v 0.319445 0.863477 -0.140810
v -0.208334 0.974589 -0.140810
v -0.097223 0.974589 -0.140810
v 0.125000 0.974589 -0.140810
v 0.208334 0.974589 -0.140810
v -0.319445 0.002366 0.133141
v -0.319445 0.113477 0.133141
v -0.208334 0.002366 0.133141
v -0.208334 0.113477 0.133141
v -0.125000 0.002366 0.133141
v -0.125000 0.113477 0.133141
v 0.319445 0.113477 0.133141
v 0.319445 0.002366 0.133141
v -0.319445 0.224589 0.133141
v -0.208334 0.224589 0.133141
v -0.125000 0.224589 0.133141
v -0.208334 0.335700 0.133141
v -0.125000 0.335700 0.133141
v -0.097223 0.224589 0.133141
v -0.097223 0.335700 0.133141
v -0.013889 0.224589 0.133141
v -0.013889 0.335700 0.133141
v -0.097223 0.446811 0.133141
v -0.013889 0.446811 0.133141
v 0.013889 0.335700 0.133141
v 0.013889 0.446811 0.133141
v 0.097221 0.335700 0.133141
v 0.097221 0.446811 0.133141
v 0.013889 0.557922 0.133141
v 0.097221 0.557922 0.133141
v 0.125000 0.446811 0.133141
v 0.125000 0.557922 0.133141
v 0.208334 0.446811 0.133141
v 0.208334 0.557922 0.133141
v -0.319445 0.863477 0.133141
v -0.208334 0.863477 0.133141
v -0.319445 0.669033 0.133141
v -0.208334 0.669033 0.133141
v -0.097223 0.669033 0.133141
v -0.097223 0.863477 0.133141
v 0.125000 0.863477 0.133141
v 0.208334 0.863477 0.133141
v 0.319445 0.863477 0.133141
v 0.319445 0.557922 0.133141
v -0.208334 0.974589 0.133141
v -0.097223 0.974589 0.133141
v 0.125000 0.974589 0.133141
v 0.208334 0.974589 0.133141
vt 0.000000 0.114286
vt 0.000000 0.000000
vt 0.173912 0.114286
vt 0.173912 0.000000
vt 0.304348 0.114286
vt 0.304348 0.000000
vt 1.000000 0.114286
vt 1.000000 0.000000
vt 0.173912 0.228571
vt 0.000000 0.228571
vt 0.304348 0.228571
vt 0.304348 0.342857
vt 0.173912 0.342857
vt 0.347825 0.228571
vt 0.347825 0.342857
vt 0.478260 0.342857
vt 0.478260 0.228571
vt 0.478260 0.457143
vt 0.347825 0.457143
vt 0.521740 0.342857
vt 0.521740 0.457143
vt 0.652172 0.457143
vt 0.652172 0.342857
vt 0.652172 0.571429
vt 0.521740 0.571429
vt 0.695652 0.457143
vt 0.695652 0.571429
vt 0.826088 0.571429
vt 0.826088 0.457143
vt 0.173912 0.885714
vt 0.000000 0.885714
vt 0.173912 0.685714
vt 0.000000 0.685714
vt 0.347825 0.885714
vt 0.347825 0.685714
vt 0.695652 0.885714
vt 0.826088 0.885714
vt 1.000000 0.885714
vt 1.000000 0.571429
vt 0.347825 1.000000
vt 0.173912 1.000000
vt 0.695652 1.000000
vt 0.826088 1.000000
vt 0.000000 0.114286
vt 0.173912 0.114286
vt 0.000000 0.000000
vt 0.173912 0.000000
vt 0.304348 0.114286
vt 0.304348 0.000000
vt 1.000000 0.114286
vt 1.000000 0.000000
vt 0.173912 0.228571
vt 0.000000 0.228571
vt 0.304348 0.228571
vt 0.304348 0.342857
vt 0.173912 0.342857
vt 0.347825 0.228571
vt 0.347825 0.342857
vt 0.478260 0.342857
vt 0.478260 0.228571
vt 0.478260 0.457143
vt 0.347825 0.457143
vt 0.521740 0.342857
vt 0.521740 0.457143
vt 0.652172 0.457143
vt 0.652172 0.342857
vt 0.652172 0.571429
vt 0.521740 0.571429
vt 0.695652 0.457143
vt 0.695652 0.571429
vt 0.826088 0.571429
vt 0.826088 0.457143
vt 0.173912 0.885714
vt 0.173912 0.685714
vt 0.000000 0.885714
vt 0.000000 0.685714
vt 0.347825 0.885714
vt 0.347825 0.685714
vt 0.695652 0.885714
vt 0.826088 0.885714
vt 1.000000 0.885714
vt 1.000000 0.571429
vt 0.347825 1.000000
vt 0.173912 1.000000
vt 0.695652 1.000000
vt 0.826088 1.000000
vn 0.000000 0.000000 1.000000
vn 0.000000 0.000000 1.000000
vn 0.000000 0.000000 1.000000
vn 0.000000 0.000000 1.000000
vn 0.000000 0.000000 1.000000
vn 0.000000 0.000000 1.000000
vn 0.000000 0.000000 1.000000
vn 0.000000 0.000000 1.000000
vn 0.000000 0.000000 1.000000
vn 0.000000 0.000000 1.000000
vn 0.000000 0.000000 1.000000
vn 0.000000 0.000000 1.000000
vn 0.000000 0.000000 1.000000
vn 0.000000 0.000000 1.000000
vn 0.000000 0.000000 1.000000
vn 0.000000 0.000000 1.000000
vn 0.000000 0.000000 1.000000
vn 0.000000 0.000000 1.000000
vn 0.000000 0.000000 1.000000
vn 0.000000 0.000000 1.000000
vn 0.000000 0.000000 1.000000
vn 0.000000 0.000000 1.000000
vn 0.000000 0.000000 1.000000
vn 0.000000 0.000000 1.000000
vn 0.000000 0.000000 1.000000
vn 0.000000 0.000000 1.000000
vn 0.000000 0.000000 1.000000
vn 0.000000 0.000000 1.000000
vn 0.000000 0.000000 1.000000
vn 0.000000 0.000000 1.000000
vn 0.000000 0.000000 1.000000
vn 0.000000 0.000000 1.000000
vn 0.000000 0.000000 1.000000
vn 0.000000 0.000000 1.000000
vn 0.000000 0.000000 1.000000
vn 0.000000 0.000000 1.000000
vn 0.000000 0.000000 1.000000
vn 0.000000 0.000000 1.000000
vn 0.000000 0.000000 1.000000
vn 0.000000 0.000000 1.000000
vn 0.000000 0.000000 1.000000
vn 0.000000 0.000000 1.000000
vn 0.000000 0.000000 1.000000
vn 0.000000 0.000000 -1.000000
vn 0.000000 0.000000 -1.000000
vn 0.000000 0.000000 -1.000000
vn 0.000000 0.000000 -1.000000
vn 0.000000 0.000000 -1.000000
vn 0.000000 0.000000 -1.000000
vn 0.000000 0.000000 -1.000000
vn 0.000000 0.000000 -1.000000
vn 0.000000 0.000000 -1.000000
vn 0.000000 0.000000 -1.000000
vn 0.000000 0.000000 -1.000000
vn 0.000000 0.000000 -1.000000
vn 0.000000 0.000000 -1.000000
vn 0.000000 0.000000 -1.000000
vn 0.000000 0.000000 -1.000000
vn 0.000000 0.000000 -1.000000
vn 0.000000 0.000000 -1.000000
vn 0.000000 0.000000 -1.000000
vn 0.000000 0.000000 -1.000000
vn 0.000000 0.000000 -1.000000
vn 0.000000 0.000000 -1.000000
vn 0.000000 0.000000 -1.000000
vn 0.000000 0.000000 -1.000000
vn 0.000000 0.000000 -1.000000
vn 0.000000 0.000000 -1.000000
vn 0.000000 0.000000 -1.000000
vn 0.000000 0.000000 -1.000000
vn 0.000000 0.000000 -1.000000
vn 0.000000 0.000000 -1.000000
vn 0.000000 0.000000 -1.000000
vn 0.000000 0.000000 -1.000000
vn 0.000000 0.000000 -1.000000
vn 0.000000 0.000000 -1.000000
vn 0.000000 0.000000 -1.000000
vn 0.000000 0.000000 -1.000000
vn 0.000000 0.000000 -1.000000
vn 0.000000 0.000000 -1.000000
vn 0.000000 0.000000 -1.000000
vn 0.000000 0.000000 -1.000000
vn 0.000000 0.000000 -1.000000
vn 0.000000 0.000000 -1.000000
vn 0.000000 0.000000 -1.000000
vn 0.000000 0.000000 -1.000000
vn -1.000000 0.000000 0.000000
vn -1.000000 0.000000 0.000000
vn -1.000000 0.000000 0.000000
vn -1.000000 0.000000 0.000000
vn 0.000000 -1.000000 0.000000
vn 0.000000 -1.000000 0.000000
vn 0.000000 -1.000000 0.000000
vn 0.000000 -1.000000 0.000000
vn 0.000000 -1.000000 0.000000
vn 0.000000 -1.000000 0.000000
vn 0.000000 -1.000000 0.000000
vn 0.000000 -1.000000 0.000000
vn 0.000000 1.000000 0.000000
vn 0.000000 1.000000 0.000000
vn 0.000000 1.000000 0.000000
vn 0.000000 1.000000 0.000000
vn 0.000000 -1.000000 0.000000
vn 0.000000 -1.000000 0.000000
vn 0.000000 -1.000000 0.000000
vn 0.000000 -1.000000 0.000000
vn 1.000000 0.000000 0.000000
vn 1.000000 0.000000 0.000000
vn 1.000000 0.000000 0.000000
vn 1.000000 0.000000 0.000000
vn 0.000000 1.000000 0.000000
vn 0.000000 1.000000 0.000000
vn 0.000000 1.000000 0.000000
vn 0.000000 1.000000 0.000000
vn -1.000000 0.000000 0.000000
vn -1.000000 0.000000 0.000000
vn -1.000000 0.000000 0.000000
vn -1.000000 0.000000 0.000000
vn 1.000000 0.000000 0.000000
vn 1.000000 0.000000 0.000000
vn 1.000000 0.000000 0.000000
vn 1.000000 0.000000 0.000000
vn 0.000000 1.000000 0.000000
vn 0.000000 1.000000 0.000000
vn 0.000000 1.000000 0.000000
vn 0.000000 1.000000 0.000000
vn -1.000000 0.000000 0.000000
vn -1.000000 0.000000 0.000000
vn -1.000000 0.000000 0.000000
vn -1.000000 0.000000 0.000000
vn 0.000000 1.000000 0.000000
vn 0.000000 1.000000 0.000000
vn 0.000000 1.000000 0.000000
vn 0.000000 1.000000 0.000000
vn 0.000000 -1.000000 0.000000
vn 0.000000 -1.000000 0.000000
vn 0.000000 -1.000000 0.000000
vn 0.000000 -1.000000 0.000000
vn 0.000000 -1.000000 0.000000
vn 0.000000 -1.000000 0.000000
vn 0.000000 -1.000000 0.000000
vn 0.000000 -1.000000 0.000000
vn 1.000000 0.000000 0.000000
vn 1.000000 0.000000 0.000000
vn 1.000000 0.000000 0.000000
vn 1.000000 0.000000 0.000000
vn 0.000000 1.000000 0.000000
vn 0.000000 1.000000 0.000000
vn 0.000000 1.000000 0.000000
vn 0.000000 1.000000 0.000000
vn -1.000000 0.000000 0.000000
vn -1.000000 0.000000 0.000000
vn -1.000000 0.000000 0.000000
vn -1.000000 0.000000 0.000000
vn 0.000000 1.000000 0.000000
vn 0.000000 1.000000 0.000000
vn 0.000000 1.000000 0.000000
vn 0.000000 1.000000 0.000000
vn 0.000000 -1.000000 0.000000
vn 0.000000 -1.000000 0.000000
vn 0.000000 -1.000000 0.000000
vn 0.000000 -1.000000 0.000000
vn 0.000000 -1.000000 0.000000
vn 0.000000 -1.000000 0.000000
vn 0.000000 -1.000000 0.000000
vn 0.000000 -1.000000 0.000000
vn 1.000000 0.000000 0.000000
vn 1.000000 0.000000 0.000000
vn 1.000000 0.000000 0.000000
vn 1.000000 0.000000 0.000000
vn 0.000000 1.000000 0.000000
vn 0.000000 1.000000 0.000000
vn 0.000000 1.000000 0.000000
vn 0.000000 1.000000 0.000000
vn -1.000000 0.000000 0.000000
vn -1.000000 0.000000 0.000000
vn -1.000000 0.000000 0.000000
vn -1.000000 0.000000 0.000000
vn 0.000000 1.000000 0.000000
vn 0.000000 1.000000 0.000000
vn 0.000000 1.000000 0.000000
vn 0.000000 1.000000 0.000000
vn 0.000000 -1.000000 0.000000
vn 0.000000 -1.000000 0.000000
vn 0.000000 -1.000000 0.000000
vn 0.000000 -1.000000 0.000000
vn 0.000000 -1.000000 0.000000
vn 0.000000 -1.000000 0.000000
vn 0.000000 -1.000000 0.000000
vn 0.000000 -1.000000 0.000000
vn 1.000000 0.000000 0.000000
vn 1.000000 0.000000 0.000000
vn 1.000000 0.000000 0.000000
vn 1.000000 0.000000 0.000000
vn 0.000000 1.000000 0.000000
vn 0.000000 1.000000 0.000000
vn 0.000000 1.000000 0.000000
vn 0.000000 1.000000 0.000000
vn -1.000000 0.000000 0.000000
vn -1.000000 0.000000 0.000000
vn -1.000000 0.000000 0.000000
vn -1.000000 0.000000 0.000000
vn 0.000000 -1.000000 0.000000
vn 0.000000 -1.000000 0.000000
vn 0.000000 -1.000000 0.000000
vn 0.000000 -1.000000 0.000000
vn 0.000000 -1.000000 0.000000
vn 0.000000 -1.000000 0.000000
vn 0.000000 -1.000000 0.000000
vn 0.000000 -1.000000 0.000000
vn 1.000000 0.000000 0.000000
vn 1.000000 0.000000 0.000000
vn 1.000000 0.000000 0.000000
vn 1.000000 0.000000 0.000000
vn -1.000000 0.000000 0.000000
vn -1.000000 0.000000 0.000000
vn -1.000000 0.000000 0.000000
vn -1.000000 0.000000 0.000000
vn 0.000000 1.000000 0.000000
vn 0.000000 1.000000 0.000000
vn 0.000000 1.000000 0.000000
vn 0.000000 1.000000 0.000000
vn 0.000000 -1.000000 0.000000
vn 0.000000 -1.000000 0.000000
vn 0.000000 -1.000000 0.000000
vn 0.000000 -1.000000 0.000000
vn 1.000000 0.000000 0.000000
vn 1.000000 0.000000 0.000000
vn 1.000000 0.000000 0.000000
vn 1.000000 0.000000 0.000000
vn 0.000000 1.000000 0.000000
vn 0.000000 1.000000 0.000000
vn 0.000000 1.000000 0.000000
vn 0.000000 1.000000 0.000000
vn -1.000000 0.000000 0.000000
vn -1.000000 0.000000 0.000000
vn -1.000000 0.000000 0.000000
vn -1.000000 0.000000 0.000000
vn 0.000000 1.000000 0.000000
vn 0.000000 1.000000 0.000000
vn 0.000000 1.000000 0.000000
vn 0.000000 1.000000 0.000000
vn 0.000000 -1.000000 0.000000
vn 0.000000 -1.000000 0.000000
vn 0.000000 -1.000000 0.000000
vn 0.000000 -1.000000 0.000000
vn 0.000000 1.000000 0.000000
vn 0.000000 1.000000 0.000000
vn 0.000000 1.000000 0.000000
vn 0.000000 1.000000 0.000000
vn 1.000000 0.000000 0.000000
vn 1.000000 0.000000 0.000000
vn 1.000000 0.000000 0.000000
vn 1.000000 0.000000 0.000000
f 45/1/1 44/2/2 47/3/3
f 47/3/3 44/2/2 46/4/4
f 47/3/3 46/4/4 49/5/5
f 49/5/5 46/4/4 48/6/6
f 50/7/7 49/5/5 51/8/8
f 51/8/8 49/5/5 48/6/6
f 53/9/9 52/10/10 47/3/3
f 47/3/3 52/10/10 45/1/1
f 53/9/9 47/3/3 54/11/11
f 54/11/11 47/3/3 49/5/5
f 56/12/12 55/13/13 54/11/11
f 54/11/11 55/13/13 53/9/9
f 57/14/14 58/15/15 54/11/11
f 54/11/11 58/15/15 56/12/12
f 58/15/15 57/14/14 60/16/16
f 60/16/16 57/14/14 59/17/17
f 62/18/18 61/19/19 60/16/16
f 60/16/16 61/19/19 58/15/15
f 63/20/20 64/21/21 60/16/16
f 60/16/16 64/21/21 62/18/18
f 64/21/21 63/20/20 66/22/22
f 66/22/22 63/20/20 65/23/23
f 68/24/24 67/25/25 66/22/22
f 66/22/22 67/25/25 64/21/21
f 69/26/26 70/27/27 66/22/22
f 66/22/22 70/27/27 68/24/24
f 70/27/27 69/26/26 72/28/28
f 72/28/28 69/26/26 71/29/29
f 74/30/30 73/31/31 76/32/32
f 76/32/32 73/31/31 75/33/33
f 74/30/30 76/32/32 78/34/34
f 78/34/34 76/32/32 77/35/35
f 79/36/36 70/27/27 80/37/37
f 80/37/37 70/27/27 72/28/28
f 81/38/38 80/37/37 82/39/39
f 82/39/39 80/37/37 72/28/28
f 84/40/40 83/41/41 78/34/34
f 78/34/34 83/41/41 74/30/30
f 85/42/42 84/40/40 79/36/36
f 79/36/36 84/40/40 78/34/34
f 86/43/43 85/42/42 80/37/37
f 80/37/37 85/42/42 79/36/36
f 5/44/44 6/45/45 1/46/46
f 1/46/46 6/45/45 2/47/47
f 6/45/45 7/48/48 2/47/47
f 2/47/47 7/48/48 3/49/49
f 8/50/50 4/51/51 7/48/48
f 7/48/48 4/51/51 3/49/49
f 10/52/52 6/45/45 9/53/53
f 9/53/53 6/45/45 5/44/44
f 10/52/52 11/54/54 6/45/45
f 6/45/45 11/54/54 7/48/48
f 15/55/55 11/54/54 14/56/56
f 14/56/56 11/54/54 10/52/52
f 12/57/57 11/54/54 16/58/58
f 16/58/58 11/54/54 15/55/55
f 16/58/58 17/59/59 12/57/57
f 12/57/57 17/59/59 13/60/60
f 21/61/61 17/59/59 20/62/62
f 20/62/62 17/59/59 16/58/58
f 18/63/63 17/59/59 22/64/64
f 22/64/64 17/59/59 21/61/61
f 22/64/64 23/65/65 18/63/63
f 18/63/63 23/65/65 19/66/66
f 27/67/67 23/65/65 26/68/68
f 26/68/68 23/65/65 22/64/64
f 24/69/69 23/65/65 28/70/70
f 28/70/70 23/65/65 27/67/67
f 28/70/70 29/71/71 24/69/69
f 24/69/69 29/71/71 25/72/72
f 35/73/73 32/74/74 34/75/75
f 34/75/75 32/74/74 31/76/76
f 35/73/73 36/77/77 32/74/74
f 32/74/74 36/77/77 33/78/78
f 37/79/79 38/80/80 28/70/70
f 28/70/70 38/80/80 29/71/71
f 39/81/81 30/82/82 38/80/80
f 38/80/80 30/82/82 29/71/71
f 41/83/83 36/77/77 40/84/84
f 40/84/84 36/77/77 35/73/73
f 42/85/85 37/79/79 41/83/83
f 41/83/83 37/79/79 36/77/77
f 43/86/86 38/80/80 42/85/85
f 42/85/85 38/80/80 37/79/79
f 5/44/87 1/46/88 45/1/89
f 45/1/89 1/46/88 44/2/90
f 1/46/91 2/47/92 44/2/93
f 44/2/93 2/47/92 46/4/94
f 2/47/95 3/49/96 46/4/97
f 46/4/97 3/49/96 48/6/98
f 8/50/99 7/48/100 50/7/101
f 50/7/101 7/48/100 49/5/102
f 3/49/103 4/51/104 48/6/105
f 48/6/105 4/51/104 51/8/106
f 4/51/107 8/50/108 51/8/109
f 51/8/109 8/50/108 50/7/110
f 10/52/111 9/53/112 53/9/113
f 53/9/113 9/53/112 52/10/114
f 9/53/115 5/44/116 52/10/117
f 52/10/117 5/44/116 45/1/118
f 7/48/119 11/54/120 49/5/121
f 49/5/121 11/54/120 54/11/122
f 15/55/123 14/56/124 56/12/125
f 56/12/125 14/56/124 55/13/126
f 14/56/127 10/52/128 55/13/129
f 55/13/129 10/52/128 53/9/130
f 16/58/131 15/55/132 58/15/133
f 58/15/133 15/55/132 56/12/134
f 11/54/135 12/57/136 54/11/137
f 54/11/137 12/57/136 57/14/138
f 12/57/139 13/60/140 57/14/141
f 57/14/141 13/60/140 59/17/142
f 13/60/143 17/59/144 59/17/145
f 59/17/145 17/59/144 60/16/146
f 21/61/147 20/62/148 62/18/149
f 62/18/149 20/62/148 61/19/150
f 20/62/151 16/58/152 61/19/153
f 61/19/153 16/58/152 58/15/154
f 22/64/155 21/61/156 64/21/157
f 64/21/157 21/61/156 62/18/158
f 17/59/159 18/63/160 60/16/161
f 60/16/161 18/63/160 63/20/162
f 18/63/163 19/66/164 63/20/165
f 63/20/165 19/66/164 65/23/166
f 19/66/167 23/65/168 65/23/169
f 65/23/169 23/65/168 66/22/170
f 27/67/171 26/68/172 68/24/173
f 68/24/173 26/68/172 67/25/174
f 26/68/175 22/64/176 67/25/177
f 67/25/177 22/64/176 64/21/178
f 28/70/179 27/67/180 70/27/181
f 70/27/181 27/67/180 68/24/182
f 23/65/183 24/69/184 66/22/185
f 66/22/185 24/69/184 69/26/186
f 24/69/187 25/72/188 69/26/189
f 69/26/189 25/72/188 71/29/190
f 25/72/191 29/71/192 71/29/193
f 71/29/193 29/71/192 72/28/194
f 35/73/195 34/75/196 74/30/197
f 74/30/197 34/75/196 73/31/198
f 34/75/199 31/76/200 73/31/201
f 73/31/201 31/76/200 75/33/202
f 31/76/203 32/74/204 75/33/205
f 75/33/205 32/74/204 76/32/206
f 32/74/207 33/78/208 76/32/209
f 76/32/209 33/78/208 77/35/210
f 33/78/211 36/77/212 77/35/213
f 77/35/213 36/77/212 78/34/214
f 37/79/215 28/70/216 79/36/217
f 79/36/217 28/70/216 70/27/218
f 39/81/219 38/80/220 81/38/221
f 81/38/221 38/80/220 80/37/222
f 29/71/223 30/82/224 72/28/225
f 72/28/225 30/82/224 82/39/226
f 30/82/227 39/81/228 82/39/229
f 82/39/229 39/81/228 81/38/230
f 41/83/231 40/84/232 84/40/233
f 84/40/233 40/84/232 83/41/234
f 40/84/235 35/73/236 83/41/237
f 83/41/237 35/73/236 74/30/238
f 42/85/239 41/83/240 85/42/241
f 85/42/241 41/83/240 84/40/242
f 36/77/243 37/79/244 78/34/245
f 78/34/245 37/79/244 79/36/246
f 43/86/247 42/85/248 86/43/249
f 86/43/249 42/85/248 85/42/250
f 38/80/251 43/86/252 80/37/253
f 80/37/253 43/86/252 86/43/254
