# This file uses centimeters as units for non-parametric coordinates.

v -0.208334 0.002366 -0.140810
v -0.125000 0.002366 -0.140810
v 0.125000 0.002366 -0.140810
v 0.208334 0.002366 -0.140810
v -0.319445 0.113477 -0.140810
v -0.208334 0.113477 -0.140810
v -0.125000 0.113477 -0.140810
v 0.125000 0.113477 -0.140810
v 0.208334 0.113477 -0.140810
v 0.319445 0.113477 -0.140810
v -0.013889 0.335700 -0.140810
v 0.013889 0.335700 -0.140810
v 0.125000 0.335700 -0.140810
v 0.208334 0.335700 -0.140810
v 0.319445 0.335700 -0.140810
v -0.319445 0.419033 -0.140810
v -0.208334 0.419033 -0.140810
v -0.125000 0.419033 -0.140810
v 0.125000 0.419033 -0.140810
v 0.208334 0.419033 -0.140810
v 0.319445 0.419033 -0.140810
v -0.208334 0.446811 -0.140810
v -0.125000 0.446811 -0.140810
v -0.013889 0.446811 -0.140810
v 0.013889 0.446811 -0.140810
v 0.125000 0.446811 -0.140810
v 0.208334 0.446811 -0.140810
v 0.013889 0.530144 -0.140810
v 0.125000 0.530144 -0.140810
v 0.208334 0.530144 -0.140810
v -0.319445 0.557922 -0.140810
v -0.208334 0.557922 -0.140810
v -0.125000 0.557922 -0.140810
v -0.013889 0.557922 -0.140810
v 0.013889 0.557922 -0.140810
v 0.125000 0.557922 -0.140810
v 0.208334 0.557922 -0.140810
v 0.319445 0.557922 -0.140810
v -0.319445 0.641255 -0.140810
v -0.208334 0.641255 -0.140810
v -0.125000 0.641255 -0.140810
v -0.013889 0.641255 -0.140810
v 0.013889 0.641255 -0.140810
v -0.319445 0.863477 -0.140810
v -0.208334 0.863477 -0.140810
v -0.125000 0.863477 -0.140810
v 0.125000 0.863477 -0.140810
v 0.208334 0.863477 -0.140810
v 0.319445 0.863477 -0.140810
v -0.208334 0.974589 -0.140810
v -0.125000 0.974589 -0.140810
v 0.125000 0.974589 -0.140810
v 0.208334 0.974589 -0.140810
v -0.013889 0.530542 -0.140810
v -0.125000 0.530542 -0.140810
v -0.208334 0.530542 -0.140810
v 0.013889 0.419173 -0.140810
v -0.013889 0.419173 -0.140810
v -0.208334 0.002366 0.133141
v -0.208334 0.113477 0.133141
v -0.125000 0.002366 0.133141
v -0.125000 0.113477 0.133141
v 0.125000 0.113477 0.133141
v 0.125000 0.002366 0.133141
v 0.208334 0.002366 0.133141
v 0.208334 0.113477 0.133141
v 0.125000 0.335700 0.133141
v 0.208334 0.335700 0.133141
v 0.319445 0.113477 0.133141
v 0.319445 0.335700 0.133141
v -0.319445 0.419033 0.133141
v -0.208334 0.419033 0.133141
v -0.319445 0.113477 0.133141
v -0.125000 0.419033 0.133141
v 0.125000 0.419033 0.133141
v 0.208334 0.419033 0.133141
v 0.319445 0.419033 0.133141
v -0.208334 0.446811 0.133141
v -0.125000 0.446811 0.133141
v 0.013889 0.335700 0.133141
v 0.013889 0.419173 0.133141
v -0.013889 0.419173 0.133141
v -0.013889 0.335700 0.133141
v 0.125000 0.446811 0.133141
v 0.208334 0.446811 0.133141
v 0.013889 0.530144 0.133141
v 0.125000 0.530144 0.133141
v 0.013889 0.446811 0.133141
v 0.208334 0.530144 0.133141
v -0.208334 0.530542 0.133141
v -0.125000 0.530542 0.133141
v -0.013889 0.446811 0.133141
v -0.013889 0.530542 0.133141
v 0.125000 0.557922 0.133141
v 0.208334 0.557922 0.133141
v -0.319445 0.557922 0.133141
v -0.319445 0.641255 0.133141
v -0.208334 0.557922 0.133141
v -0.208334 0.641255 0.133141
v -0.125000 0.557922 0.133141
v -0.125000 0.641255 0.133141
v -0.013889 0.641255 0.133141
v -0.013889 0.557922 0.133141
v 0.013889 0.557922 0.133141
v 0.013889 0.641255 0.133141
v -0.319445 0.863477 0.133141
v -0.208334 0.863477 0.133141
v -0.125000 0.863477 0.133141
v 0.125000 0.863477 0.133141
v 0.208334 0.863477 0.133141
v 0.319445 0.863477 0.133141
v 0.319445 0.557922 0.133141
v -0.208334 0.974589 0.133141
v -0.125000 0.974589 0.133141
v 0.125000 0.974589 0.133141
v 0.208334 0.974589 0.133141
vt 0.173912 0.114286
vt 0.173912 0.000000
vt 0.304348 0.114286
vt 0.304348 0.000000
vt 0.695652 0.114286
vt 0.695652 0.000000
vt 0.826088 0.114286
vt 0.826088 0.000000
vt 0.695652 0.342857
vt 0.826088 0.342857
vt 1.000000 0.342857
vt 1.000000 0.114286
vt 0.173912 0.428571
vt 0.000000 0.428571
vt 0.000000 0.114286
vt 0.304348 0.428571
vt 0.695652 0.428571
vt 0.826088 0.428571
vt 1.000000 0.428571
vt 0.173912 0.457143
vt 0.304348 0.457143
vt 0.521740 0.342857
vt 0.521740 0.428715
vt 0.478260 0.342857
vt 0.478260 0.428715
vt 0.695652 0.457143
vt 0.826088 0.457143
vt 0.695652 0.542857
vt 0.521740 0.542857
vt 0.521740 0.457143
vt 0.826088 0.542857
vt 0.173912 0.543267
vt 0.304348 0.543267
vt 0.478260 0.543267
vt 0.478260 0.457143
vt 0.695652 0.571429
vt 0.826088 0.571429
vt 0.000000 0.657143
vt 0.000000 0.571429
vt 0.173912 0.657143
vt 0.173912 0.571429
vt 0.304348 0.657143
vt 0.304348 0.571429
vt 0.478260 0.657143
vt 0.478260 0.571429
vt 0.521740 0.571429
vt 0.521740 0.657143
vt 0.173912 0.885714
vt 0.000000 0.885714
vt 0.304348 0.885714
vt 0.695652 0.885714
vt 0.826088 0.885714
vt 1.000000 0.885714
vt 1.000000 0.571429
vt 0.304348 1.000000
vt 0.173912 1.000000
vt 0.695652 1.000000
vt 0.826088 1.000000
vt 0.173912 0.114286
vt 0.304348 0.114286
vt 0.173912 0.000000
vt 0.304348 0.000000
vt 0.695652 0.114286
vt 0.695652 0.000000
vt 0.826088 0.114286
vt 0.826088 0.000000
vt 0.695652 0.342857
vt 0.826088 0.342857
vt 1.000000 0.342857
vt 1.000000 0.114286
vt 0.173912 0.428571
vt 0.000000 0.428571
vt 0.000000 0.114286
vt 0.304348 0.428571
vt 0.695652 0.428571
vt 0.826088 0.428571
vt 1.000000 0.428571
vt 0.173912 0.457143
vt 0.304348 0.457143
vt 0.521740 0.342857
vt 0.478260 0.342857
vt 0.521740 0.428715
vt 0.478260 0.428715
vt 0.695652 0.457143
vt 0.826088 0.457143
vt 0.695652 0.542857
vt 0.521740 0.542857
vt 0.521740 0.457143
vt 0.826088 0.542857
vt 0.173912 0.543267
vt 0.304348 0.543267
vt 0.478260 0.543267
vt 0.478260 0.457143
vt 0.695652 0.571429
vt 0.826088 0.571429
vt 0.000000 0.657143
vt 0.173912 0.657143
vt 0.000000 0.571429
vt 0.173912 0.571429
vt 0.304348 0.657143
vt 0.304348 0.571429
vt 0.478260 0.657143
vt 0.478260 0.571429
vt 0.521740 0.571429
vt 0.521740 0.657143
vt 0.173912 0.885714
vt 0.000000 0.885714
vt 0.304348 0.885714
vt 0.695652 0.885714
vt 0.826088 0.885714
vt 1.000000 0.885714
vt 1.000000 0.571429
vt 0.304348 1.000000
vt 0.173912 1.000000
vt 0.695652 1.000000
vt 0.826088 1.000000
vn 0.000000 0.000000 1.000000
vn 0.000000 0.000000 1.000000
vn 0.000000 0.000000 1.000000
vn 0.000000 0.000000 1.000000
vn 0.000000 0.000000 1.000000
vn 0.000000 0.000000 1.000000
vn 0.000000 0.000000 1.000000
vn 0.000000 0.000000 1.000000
vn 0.000000 0.000000 1.000000
vn 0.000000 0.000000 1.000000
vn 0.000000 0.000000 1.000000
vn 0.000000 0.000000 1.000000
vn 0.000000 0.000000 1.000000
vn 0.000000 0.000000 1.000000
vn 0.000000 0.000000 1.000000
vn 0.000000 0.000000 1.000000
vn 0.000000 0.000000 1.000000
vn 0.000000 0.000000 1.000000
vn 0.000000 0.000000 1.000000
vn 0.000000 0.000000 1.000000
vn 0.000000 0.000000 1.000000
vn 0.000000 0.000000 1.000000
vn 0.000000 0.000000 1.000000
vn 0.000000 0.000000 1.000000
vn 0.000000 0.000000 1.000000
vn 0.000000 0.000000 1.000000
vn 0.000000 0.000000 1.000000
vn 0.000000 0.000000 1.000000
vn -0.000000 0.000000 1.000000
vn 0.000000 0.000000 1.000000
vn 0.000000 0.000000 1.000000
vn 0.000000 0.000000 1.000000
vn 0.000000 0.000000 1.000000
vn -0.000000 0.000000 1.000000
vn -0.000000 0.000000 1.000000
vn 0.000000 0.000000 1.000000
vn 0.000000 0.000000 1.000000
vn 0.000000 0.000000 1.000000
vn 0.000000 0.000000 1.000000
vn 0.000000 0.000000 1.000000
vn 0.000000 0.000000 1.000000
vn 0.000000 0.000000 1.000000
vn 0.000000 0.000000 1.000000
vn 0.000000 0.000000 1.000000
vn 0.000000 0.000000 1.000000
vn 0.000000 0.000000 1.000000
vn 0.000000 0.000000 1.000000
vn 0.000000 0.000000 1.000000
vn 0.000000 0.000000 1.000000
vn 0.000000 0.000000 1.000000
vn 0.000000 0.000000 1.000000
vn 0.000000 0.000000 1.000000
vn 0.000000 0.000000 1.000000
vn 0.000000 0.000000 1.000000
vn 0.000000 0.000000 1.000000
vn 0.000000 0.000000 1.000000
vn 0.000000 0.000000 1.000000
vn 0.000000 0.000000 1.000000
vn 0.000000 0.000000 1.000000
vn 0.000000 0.000000 1.000000
vn 0.000000 0.000000 1.000000
vn 0.000000 0.000000 1.000000
vn 0.000000 0.000000 1.000000
vn 0.000000 0.000000 1.000000
vn 0.000000 0.000000 -1.000000
vn 0.000000 0.000000 -1.000000
vn 0.000000 0.000000 -1.000000
vn 0.000000 0.000000 -1.000000
vn 0.000000 0.000000 -1.000000
vn 0.000000 0.000000 -1.000000
vn 0.000000 0.000000 -1.000000
vn 0.000000 0.000000 -1.000000
vn 0.000000 0.000000 -1.000000
vn 0.000000 0.000000 -1.000000
vn 0.000000 0.000000 -1.000000
vn 0.000000 0.000000 -1.000000
vn 0.000000 0.000000 -1.000000
vn 0.000000 0.000000 -1.000000
vn 0.000000 0.000000 -1.000000
vn 0.000000 0.000000 -1.000000
vn -0.000000 0.000000 -1.000000
vn 0.000000 0.000000 -1.000000
vn 0.000000 0.000000 -1.000000
vn 0.000000 0.000000 -1.000000
vn 0.000000 0.000000 -1.000000
vn 0.000000 0.000000 -1.000000
vn 0.000000 0.000000 -1.000000
vn 0.000000 0.000000 -1.000000
vn 0.000000 0.000000 -1.000000
vn -0.000000 0.000000 -1.000000
vn 0.000000 0.000000 -1.000000
vn 0.000000 0.000000 -1.000000
vn -0.000000 0.000000 -1.000000
vn 0.000000 0.000000 -1.000000
vn 0.000000 0.000000 -1.000000
vn 0.000000 0.000000 -1.000000
vn 0.000000 0.000000 -1.000000
vn -0.000000 0.000000 -1.000000
vn -0.000000 0.000000 -1.000000
vn 0.000000 0.000000 -1.000000
vn 0.000000 0.000000 -1.000000
vn 0.000000 0.000000 -1.000000
vn 0.000000 0.000000 -1.000000
vn 0.000000 0.000000 -1.000000
vn 0.000000 0.000000 -1.000000
vn 0.000000 0.000000 -1.000000
vn 0.000000 0.000000 -1.000000
vn 0.000000 0.000000 -1.000000
vn 0.000000 0.000000 -1.000000
vn 0.000000 0.000000 -1.000000
vn 0.000000 0.000000 -1.000000
vn 0.000000 0.000000 -1.000000
vn 0.000000 0.000000 -1.000000
vn 0.000000 0.000000 -1.000000
vn 0.000000 0.000000 -1.000000
vn 0.000000 0.000000 -1.000000
vn 0.000000 0.000000 -1.000000
vn 0.000000 0.000000 -1.000000
vn 0.000000 0.000000 -1.000000
vn 0.000000 0.000000 -1.000000
vn 0.000000 0.000000 -1.000000
vn 0.000000 0.000000 -1.000000
vn 0.000000 0.000000 -1.000000
vn 0.000000 0.000000 -1.000000
vn 0.000000 0.000000 -1.000000
vn 0.000000 0.000000 -1.000000
vn -0.000000 0.000000 -1.000000
vn 0.000000 0.000000 -1.000000
vn -1.000000 0.000000 0.000000
vn -1.000000 0.000000 0.000000
vn -1.000000 0.000000 0.000000
vn -1.000000 0.000000 0.000000
vn 0.000000 -1.000000 0.000000
vn 0.000000 -1.000000 0.000000
vn 0.000000 -1.000000 0.000000
vn 0.000000 -1.000000 0.000000
vn 0.000000 1.000000 0.000000
vn 0.000000 1.000000 0.000000
vn 0.000000 1.000000 0.000000
vn 0.000000 1.000000 0.000000
vn 0.000000 -1.000000 0.000000
vn 0.000000 -1.000000 0.000000
vn 0.000000 -1.000000 0.000000
vn 0.000000 -1.000000 0.000000
vn 0.000000 -1.000000 0.000000
vn 0.000000 -1.000000 0.000000
vn 0.000000 -1.000000 0.000000
vn 0.000000 -1.000000 0.000000
vn 1.000000 0.000000 0.000000
vn 1.000000 0.000000 0.000000
vn 1.000000 0.000000 0.000000
vn 1.000000 0.000000 0.000000
vn -1.000000 0.000000 0.000000
vn -1.000000 0.000000 0.000000
vn -1.000000 0.000000 0.000000
vn -1.000000 0.000000 0.000000
vn 0.000000 -1.000000 0.000000
vn 0.000000 -1.000000 0.000000
vn 0.000000 -1.000000 0.000000
vn 0.000000 -1.000000 0.000000
vn 1.000000 0.000000 0.000000
vn 1.000000 0.000000 0.000000
vn 1.000000 0.000000 0.000000
vn 1.000000 0.000000 0.000000
vn 0.000000 1.000000 0.000000
vn 0.000000 1.000000 0.000000
vn 0.000000 1.000000 0.000000
vn 0.000000 1.000000 0.000000
vn -1.000000 0.000000 0.000000
vn -1.000000 0.000000 0.000000
vn -1.000000 0.000000 0.000000
vn -1.000000 0.000000 0.000000
vn 0.000000 -1.000000 0.000000
vn 0.000000 -1.000000 0.000000
vn 0.000000 -1.000000 0.000000
vn 0.000000 -1.000000 0.000000
vn 1.000000 0.000000 0.000000
vn 1.000000 0.000000 0.000000
vn 1.000000 0.000000 0.000000
vn 1.000000 0.000000 0.000000
vn 0.000000 1.000000 0.000000
vn 0.000000 1.000000 0.000000
vn 0.000000 1.000000 0.000000
vn 0.000000 1.000000 0.000000
vn 1.000000 0.000000 0.000000
vn 1.000000 0.000000 0.000000
vn 1.000000 0.000000 0.000000
vn 1.000000 0.000000 0.000000
vn -1.000000 0.000000 0.000000
vn -1.000000 0.000000 0.000000
vn -1.000000 0.000000 0.000000
vn -1.000000 0.000000 0.000000
vn 1.000000 0.000000 0.000000
vn 1.000000 0.000000 0.000000
vn 1.000000 0.000000 0.000000
vn 1.000000 0.000000 0.000000
vn -1.000000 0.000000 0.000000
vn -1.000000 0.000000 0.000000
vn -1.000000 0.000000 0.000000
vn -1.000000 0.000000 0.000000
vn 0.000000 -1.000000 0.000000
vn 0.000000 -1.000000 0.000000
vn 0.000000 -1.000000 0.000000
vn 0.000000 -1.000000 0.000000
vn 0.000000 -1.000000 0.000000
vn 0.000000 -1.000000 0.000000
vn 0.000000 -1.000000 0.000000
vn 0.000000 -1.000000 0.000000
vn 1.000000 0.000000 0.000000
vn 1.000000 0.000000 0.000000
vn 1.000000 0.000000 0.000000
vn 1.000000 0.000000 0.000000
vn 0.000000 1.000000 0.000000
vn 0.000000 1.000000 0.000000
vn 0.000000 1.000000 0.000000
vn 0.000000 1.000000 0.000000
vn 1.000000 0.000000 0.000000
vn 1.000000 0.000000 0.000000
vn 1.000000 0.000000 0.000000
vn 1.000000 0.000000 0.000000
vn -1.000000 0.000000 0.000000
vn -1.000000 0.000000 0.000000
vn -1.000000 0.000000 0.000000
vn -1.000000 0.000000 0.000000
vn 0.000000 -1.000000 0.000000
vn 0.000000 -1.000000 0.000000
vn 0.000000 -1.000000 0.000000
vn 0.000000 -1.000000 0.000000
vn -1.000000 0.000000 0.000000
vn -1.000000 0.000000 0.000000
vn -1.000000 0.000000 0.000000
vn -1.000000 0.000000 0.000000
vn 1.000000 0.000000 0.000000
vn 1.000000 0.000000 0.000000
vn 1.000000 0.000000 0.000000
vn 1.000000 0.000000 0.000000
vn -1.000000 0.000000 0.000000
vn -1.000000 0.000000 0.000000
vn -1.000000 0.000000 0.000000
vn -1.000000 0.000000 0.000000
vn 0.000000 -1.000000 0.000000
vn 0.000000 -1.000000 0.000000
vn 0.000000 -1.000000 0.000000
vn 0.000000 -1.000000 0.000000
vn 0.000000 1.000000 0.000000
vn 0.000000 1.000000 0.000000
vn 0.000000 1.000000 0.000000
vn 0.000000 1.000000 0.000000
vn 1.000000 0.000000 0.000000
vn 1.000000 0.000000 0.000000
vn 1.000000 0.000000 0.000000
vn 1.000000 0.000000 0.000000
vn 0.000000 1.000000 0.000000
vn 0.000000 1.000000 0.000000
vn 0.000000 1.000000 0.000000
vn 0.000000 1.000000 0.000000
vn 0.000000 1.000000 0.000000
vn 0.000000 1.000000 0.000000
vn 0.000000 1.000000 0.000000
vn 0.000000 1.000000 0.000000
vn -1.000000 0.000000 0.000000
vn -1.000000 0.000000 0.000000
vn -1.000000 0.000000 0.000000
vn -1.000000 0.000000 0.000000
vn 1.000000 0.000000 0.000000
vn 1.000000 0.000000 0.000000
vn 1.000000 0.000000 0.000000
vn 1.000000 0.000000 0.000000
vn -1.000000 0.000000 0.000000
vn -1.000000 0.000000 0.000000
vn -1.000000 0.000000 0.000000
vn -1.000000 0.000000 0.000000
vn 0.000000 1.000000 0.000000
vn 0.000000 1.000000 0.000000
vn 0.000000 1.000000 0.000000
vn 0.000000 1.000000 0.000000
vn 0.000000 -1.000000 0.000000
vn 0.000000 -1.000000 0.000000
vn 0.000000 -1.000000 0.000000
vn 0.000000 -1.000000 0.000000
vn 1.000000 0.000000 0.000000
vn 1.000000 0.000000 0.000000
vn 1.000000 0.000000 0.000000
vn 1.000000 0.000000 0.000000
vn 0.000000 1.000000 0.000000
vn 0.000000 1.000000 0.000000
vn 0.000000 1.000000 0.000000
vn 0.000000 1.000000 0.000000
vn -1.000000 0.000000 0.000000
vn -1.000000 0.000000 0.000000
vn -1.000000 0.000000 0.000000
vn -1.000000 0.000000 0.000000
vn 0.000000 1.000000 0.000000
vn 0.000000 1.000000 0.000000
vn 0.000000 1.000000 0.000000
vn 0.000000 1.000000 0.000000
vn 0.000000 -1.000000 0.000000
vn 0.000000 -1.000000 0.000000
vn 0.000000 -1.000000 0.000000
vn 0.000000 -1.000000 0.000000
vn 0.000000 1.000000 0.000000
vn 0.000000 1.000000 0.000000
vn 0.000000 1.000000 0.000000
vn 0.000000 1.000000 0.000000
vn 1.000000 0.000000 0.000000
vn 1.000000 0.000000 0.000000
vn 1.000000 0.000000 0.000000
vn 1.000000 0.000000 0.000000
vn 1.000000 0.000000 0.000000
vn 1.000000 0.000000 0.000000
vn 1.000000 0.000000 0.000000
vn 1.000000 0.000000 0.000000
vn -1.000000 0.000000 0.000000
vn -1.000000 0.000000 0.000000
vn -1.000000 0.000000 0.000000
vn -1.000000 0.000000 0.000000
vn -1.000000 0.000000 0.000000
vn -1.000000 0.000000 0.000000
vn -1.000000 0.000000 0.000000
vn -1.000000 0.000000 0.000000
f 60/1/1 59/2/2 62/3/3
f 62/3/3 59/2/2 61/4/4
f 63/5/5 62/3/3 64/6/6
f 64/6/6 62/3/3 61/4/4
f 63/5/5 64/6/6 66/7/7
f 66/7/7 64/6/6 65/8/8
f 67/9/9 63/5/5 68/10/10
f 68/10/10 63/5/5 66/7/7
f 68/10/10 66/7/7 70/11/11
f 70/11/11 66/7/7 69/12/12
f 72/13/13 71/14/14 60/1/1
f 60/1/1 71/14/14 73/15/15
f 72/13/13 60/1/1 74/16/16
f 74/16/16 60/1/1 62/3/3
f 75/17/17 67/9/9 76/18/18
f 76/18/18 67/9/9 68/10/10
f 77/19/19 76/18/18 70/11/11
f 70/11/11 76/18/18 68/10/10
f 78/20/20 72/13/13 79/21/21
f 79/21/21 72/13/13 74/16/16
f 80/22/22 81/23/23 83/24/24
f 83/24/24 81/23/23 82/25/25
f 81/23/23 80/22/22 75/17/17
f 75/17/17 80/22/22 67/9/9
f 84/26/26 75/17/17 85/27/27
f 85/27/27 75/17/17 76/18/18
f 87/28/28 86/29/29 84/26/26
f 84/26/26 86/29/29 88/30/30
f 87/28/28 84/26/26 89/31/31
f 89/31/31 84/26/26 85/27/27
f 90/32/32 78/20/20 91/33/33
f 91/33/33 78/20/20 79/21/21
f 91/33/33 79/21/21 93/34/34
f 93/34/34 79/21/21 92/35/35
f 93/34/34 92/35/35 86/29/29
f 86/29/29 92/35/35 88/30/30
f 94/36/36 87/28/28 95/37/37
f 95/37/37 87/28/28 89/31/31
f 97/38/38 96/39/39 99/40/40
f 99/40/40 96/39/39 98/41/41
f 99/40/40 98/41/41 101/42/42
f 101/42/42 98/41/41 100/43/43
f 102/44/44 101/42/42 103/45/45
f 103/45/45 101/42/42 100/43/43
f 104/46/46 105/47/47 103/45/45
f 103/45/45 105/47/47 102/44/44
f 107/48/48 106/49/49 99/40/40
f 99/40/40 106/49/49 97/38/38
f 107/48/48 99/40/40 108/50/50
f 108/50/50 99/40/40 101/42/42
f 109/51/51 94/36/36 110/52/52
f 110/52/52 94/36/36 95/37/37
f 111/53/53 110/52/52 112/54/54
f 112/54/54 110/52/52 95/37/37
f 114/55/55 113/56/56 108/50/50
f 108/50/50 113/56/56 107/48/48
f 115/57/57 114/55/55 109/51/51
f 109/51/51 114/55/55 108/50/50
f 116/58/58 115/57/57 110/52/52
f 110/52/52 115/57/57 109/51/51
f 86/29/59 104/46/46 93/34/60
f 93/34/60 104/46/46 103/45/45
f 100/43/43 91/33/61 103/45/45
f 103/45/45 91/33/61 93/34/60
f 98/41/41 90/32/62 100/43/43
f 100/43/43 90/32/62 91/33/61
f 88/30/30 81/23/63 84/26/26
f 84/26/26 81/23/63 75/17/17
f 82/25/64 81/23/63 92/35/35
f 92/35/35 81/23/63 88/30/30
f 6/59/65 7/60/66 1/61/67
f 1/61/67 7/60/66 2/62/68
f 8/63/69 3/64/70 7/60/66
f 7/60/66 3/64/70 2/62/68
f 8/63/69 9/65/71 3/64/70
f 3/64/70 9/65/71 4/66/72
f 13/67/73 14/68/74 8/63/69
f 8/63/69 14/68/74 9/65/71
f 14/68/74 15/69/75 9/65/71
f 9/65/71 15/69/75 10/70/76
f 17/71/77 6/59/65 16/72/78
f 16/72/78 6/59/65 5/73/79
f 17/71/77 18/74/80 6/59/65
f 6/59/65 18/74/80 7/60/66
f 19/75/81 20/76/82 13/67/73
f 13/67/73 20/76/82 14/68/74
f 21/77/83 15/69/75 20/76/82
f 20/76/82 15/69/75 14/68/74
f 22/78/84 23/79/85 17/71/77
f 17/71/77 23/79/85 18/74/80
f 12/80/86 11/81/87 57/82/88
f 57/82/88 11/81/87 58/83/89
f 57/82/88 19/75/81 12/80/86
f 12/80/86 19/75/81 13/67/73
f 26/84/90 27/85/91 19/75/81
f 19/75/81 27/85/91 20/76/82
f 29/86/92 26/84/90 28/87/93
f 28/87/93 26/84/90 25/88/94
f 29/86/92 30/89/95 26/84/90
f 26/84/90 30/89/95 27/85/91
f 56/90/96 55/91/97 22/78/84
f 22/78/84 55/91/97 23/79/85
f 55/91/97 54/92/98 23/79/85
f 23/79/85 54/92/98 24/93/99
f 25/88/94 24/93/99 28/87/93
f 28/87/93 24/93/99 54/92/98
f 36/94/100 37/95/101 29/86/92
f 29/86/92 37/95/101 30/89/95
f 39/96/102 40/97/103 31/98/104
f 31/98/104 40/97/103 32/99/105
f 40/97/103 41/100/106 32/99/105
f 32/99/105 41/100/106 33/101/107
f 42/102/108 34/103/109 41/100/106
f 41/100/106 34/103/109 33/101/107
f 35/104/110 34/103/109 43/105/111
f 43/105/111 34/103/109 42/102/108
f 45/106/112 40/97/103 44/107/113
f 44/107/113 40/97/103 39/96/102
f 45/106/112 46/108/114 40/97/103
f 40/97/103 46/108/114 41/100/106
f 47/109/115 48/110/116 36/94/100
f 36/94/100 48/110/116 37/95/101
f 49/111/117 38/112/118 48/110/116
f 48/110/116 38/112/118 37/95/101
f 51/113/119 46/108/114 50/114/120
f 50/114/120 46/108/114 45/106/112
f 52/115/121 47/109/115 51/113/119
f 51/113/119 47/109/115 46/108/114
f 53/116/122 48/110/116 52/115/121
f 52/115/121 48/110/116 47/109/115
f 28/87/123 54/92/124 35/104/110
f 35/104/110 54/92/124 34/103/109
f 33/101/107 34/103/109 55/91/125
f 55/91/125 34/103/109 54/92/124
f 32/99/105 33/101/107 56/90/126
f 56/90/126 33/101/107 55/91/125
f 25/88/94 26/84/90 57/82/127
f 57/82/127 26/84/90 19/75/81
f 58/83/128 24/93/99 57/82/127
f 57/82/127 24/93/99 25/88/94
f 6/59/129 1/61/130 60/1/131
f 60/1/131 1/61/130 59/2/132
f 1/61/133 2/62/134 59/2/135
f 59/2/135 2/62/134 61/4/136
f 8/63/137 7/60/138 63/5/139
f 63/5/139 7/60/138 62/3/140
f 2/62/141 3/64/142 61/4/143
f 61/4/143 3/64/142 64/6/144
f 3/64/145 4/66/146 64/6/147
f 64/6/147 4/66/146 65/8/148
f 4/66/149 9/65/150 65/8/151
f 65/8/151 9/65/150 66/7/152
f 13/67/153 8/63/154 67/9/155
f 67/9/155 8/63/154 63/5/156
f 9/65/157 10/70/158 66/7/159
f 66/7/159 10/70/158 69/12/160
f 10/70/161 15/69/162 69/12/163
f 69/12/163 15/69/162 70/11/164
f 17/71/165 16/72/166 72/13/167
f 72/13/167 16/72/166 71/14/168
f 16/72/169 5/73/170 71/14/171
f 71/14/171 5/73/170 73/15/172
f 5/73/173 6/59/174 73/15/175
f 73/15/175 6/59/174 60/1/176
f 7/60/177 18/74/178 62/3/179
f 62/3/179 18/74/178 74/16/180
f 21/77/181 20/76/182 77/19/183
f 77/19/183 20/76/182 76/18/184
f 15/69/185 21/77/186 70/11/187
f 70/11/187 21/77/186 77/19/188
f 22/78/189 17/71/190 78/20/191
f 78/20/191 17/71/190 72/13/192
f 18/74/193 23/79/194 74/16/195
f 74/16/195 23/79/194 79/21/196
f 58/83/197 11/81/198 82/25/199
f 82/25/199 11/81/198 83/24/200
f 11/81/201 12/80/202 83/24/203
f 83/24/203 12/80/202 80/22/204
f 12/80/205 13/67/206 80/22/207
f 80/22/207 13/67/206 67/9/208
f 20/76/209 27/85/210 76/18/211
f 76/18/211 27/85/210 85/27/212
f 29/86/213 28/87/214 87/28/215
f 87/28/215 28/87/214 86/29/216
f 27/85/217 30/89/218 85/27/219
f 85/27/219 30/89/218 89/31/220
f 56/90/221 22/78/222 90/32/223
f 90/32/223 22/78/222 78/20/224
f 23/79/225 24/93/226 79/21/227
f 79/21/227 24/93/226 92/35/228
f 36/94/229 29/86/230 94/36/231
f 94/36/231 29/86/230 87/28/232
f 30/89/233 37/95/234 89/31/235
f 89/31/235 37/95/234 95/37/236
f 39/96/237 31/98/238 97/38/239
f 97/38/239 31/98/238 96/39/240
f 31/98/241 32/99/242 96/39/243
f 96/39/243 32/99/242 98/41/244
f 42/102/245 41/100/246 102/44/247
f 102/44/247 41/100/246 101/42/248
f 35/104/249 43/105/250 104/46/251
f 104/46/251 43/105/250 105/47/252
f 43/105/253 42/102/254 105/47/255
f 105/47/255 42/102/254 102/44/256
f 45/106/257 44/107/258 107/48/259
f 107/48/259 44/107/258 106/49/260
f 44/107/261 39/96/262 106/49/263
f 106/49/263 39/96/262 97/38/264
f 41/100/265 46/108/266 101/42/267
f 101/42/267 46/108/266 108/50/268
f 47/109/269 36/94/270 109/51/271
f 109/51/271 36/94/270 94/36/272
f 49/111/273 48/110/274 111/53/275
f 111/53/275 48/110/274 110/52/276
f 37/95/277 38/112/278 95/37/279
f 95/37/279 38/112/278 112/54/280
f 38/112/281 49/111/282 112/54/283
f 112/54/283 49/111/282 111/53/284
f 51/113/285 50/114/286 114/55/287
f 114/55/287 50/114/286 113/56/288
f 50/114/289 45/106/290 113/56/291
f 113/56/291 45/106/290 107/48/292
f 52/115/293 51/113/294 115/57/295
f 115/57/295 51/113/294 114/55/296
f 46/108/297 47/109/298 108/50/299
f 108/50/299 47/109/298 109/51/300
f 53/116/301 52/115/302 116/58/303
f 116/58/303 52/115/302 115/57/304
f 48/110/305 53/116/306 110/52/307
f 110/52/307 53/116/306 116/58/308
f 28/87/309 35/104/310 86/29/311
f 86/29/311 35/104/310 104/46/312
f 32/99/313 56/90/314 98/41/315
f 98/41/315 56/90/314 90/32/316
f 24/93/317 58/83/318 92/35/319
f 92/35/319 58/83/318 82/25/320
