# This file uses centimeters as units for non-parametric coordinates.

v 0.069445 0.002366 -0.140810
v 0.263889 0.002366 -0.140810
v -0.375000 0.224589 -0.140810
v -0.263889 0.224589 -0.140810
v -0.152779 0.224589 -0.140810
v 0.069445 0.224589 -0.140810
v 0.263889 0.224589 -0.140810
v 0.375000 0.224589 -0.140810
v -0.375000 0.335700 -0.140810
v -0.263889 0.335700 -0.140810
v -0.152779 0.335700 -0.140810
v 0.069445 0.335700 -0.140810
v 0.263889 0.335700 -0.140810
v 0.375000 0.335700 -0.140810
v -0.375000 0.446811 -0.140810
v -0.263889 0.446811 -0.140810
v -0.152779 0.446811 -0.140810
v -0.041666 0.446811 -0.140810
v 0.069445 0.752366 -0.140810
v 0.263889 0.752366 -0.140810
v -0.263889 0.974589 -0.140810
v -0.152779 0.974589 -0.140810
v -0.041666 0.974589 -0.140810
v 0.069445 0.002366 0.133141
v 0.069445 0.224589 0.133141
v 0.263889 0.002366 0.133141
v 0.263889 0.224589 0.133141
v -0.375000 0.224589 0.133141
v -0.375000 0.335700 0.133141
v -0.263889 0.224589 0.133141
v -0.263889 0.335700 0.133141
v -0.152779 0.224589 0.133141
v -0.152779 0.335700 0.133141
v 0.069445 0.335700 0.133141
v 0.263889 0.335700 0.133141
v 0.375000 0.335700 0.133141
v 0.375000 0.224589 0.133141
v -0.375000 0.446811 0.133141
v -0.263889 0.446811 0.133141
v -0.152779 0.446811 0.133141
v 0.069445 0.752366 0.133141
v 0.263889 0.752366 0.133141
v -0.263889 0.974589 0.133141
v -0.152779 0.974589 0.133141
v -0.041666 0.974589 0.133141
v -0.041666 0.446811 0.133141
vt 0.592593 0.228571
vt 0.592593 0.000000
vt 0.851852 0.228571
vt 0.851852 0.000000
vt 0.000000 0.342857
vt 0.000000 0.228571
vt 0.148148 0.342857
vt 0.148148 0.228571
vt 0.296295 0.342857
vt 0.296295 0.228571
vt 0.592593 0.342857
vt 0.851852 0.342857
vt 1.000000 0.342857
vt 1.000000 0.228571
vt 0.148148 0.457143
vt 0.000000 0.457143
vt 0.296295 0.457143
vt 0.851852 0.771429
vt 0.592593 0.771429
vt 0.296295 1.000000
vt 0.148148 1.000000
vt 0.444445 1.000000
vt 0.444445 0.457143
vt 0.592593 0.228571
vt 0.851852 0.228571
vt 0.592593 0.000000
vt 0.851852 0.000000
vt 0.000000 0.342857
vt 0.148148 0.342857
vt 0.000000 0.228571
vt 0.148148 0.228571
vt 0.296295 0.342857
vt 0.296295 0.228571
vt 0.592593 0.342857
vt 0.851852 0.342857
vt 1.000000 0.342857
vt 1.000000 0.228571
vt 0.148148 0.457143
vt 0.000000 0.457143
vt 0.296295 0.457143
vt 0.851852 0.771429
vt 0.592593 0.771429
vt 0.296295 1.000000
vt 0.148148 1.000000
vt 0.444445 1.000000
vt 0.444445 0.457143
vn 0.000000 0.000000 1.000000
vn 0.000000 0.000000 1.000000
vn 0.000000 0.000000 1.000000
vn 0.000000 0.000000 1.000000
vn 0.000000 0.000000 1.000000
vn 0.000000 0.000000 1.000000
vn 0.000000 0.000000 1.000000
vn 0.000000 0.000000 1.000000
vn 0.000000 0.000000 1.000000
vn 0.000000 0.000000 1.000000
vn 0.000000 0.000000 1.000000
vn 0.000000 0.000000 1.000000
vn 0.000000 0.000000 1.000000
vn 0.000000 0.000000 1.000000
vn 0.000000 0.000000 1.000000
vn 0.000000 0.000000 1.000000
vn 0.000000 0.000000 1.000000
vn 0.000000 0.000000 1.000000
vn 0.000000 0.000000 1.000000
vn 0.000000 0.000000 1.000000
vn 0.000000 0.000000 1.000000
vn 0.000000 0.000000 1.000000
vn 0.000000 0.000000 1.000000
vn 0.000000 0.000000 -1.000000
vn 0.000000 0.000000 -1.000000
vn 0.000000 0.000000 -1.000000
vn 0.000000 0.000000 -1.000000
vn 0.000000 0.000000 -1.000000
vn 0.000000 0.000000 -1.000000
vn 0.000000 0.000000 -1.000000
vn 0.000000 0.000000 -1.000000
vn 0.000000 0.000000 -1.000000
vn 0.000000 0.000000 -1.000000
vn 0.000000 0.000000 -1.000000
vn 0.000000 0.000000 -1.000000
vn 0.000000 0.000000 -1.000000
vn 0.000000 0.000000 -1.000000
vn 0.000000 0.000000 -1.000000
vn 0.000000 0.000000 -1.000000
vn 0.000000 0.000000 -1.000000
vn 0.000000 0.000000 -1.000000
vn 0.000000 0.000000 -1.000000
vn 0.000000 0.000000 -1.000000
vn 0.000000 0.000000 -1.000000
vn 0.000000 0.000000 -1.000000
vn 0.000000 0.000000 -1.000000
vn -1.000000 0.000000 0.000000
vn -1.000000 0.000000 0.000000
vn -1.000000 0.000000 0.000000
vn -1.000000 0.000000 0.000000
vn 0.000000 -1.000000 0.000000
vn 0.000000 -1.000000 0.000000
vn 0.000000 -1.000000 0.000000
vn 0.000000 -1.000000 0.000000
vn 1.000000 0.000000 0.000000
vn 1.000000 0.000000 0.000000
vn 1.000000 0.000000 0.000000
vn 1.000000 0.000000 0.000000
vn -1.000000 0.000000 0.000000
vn -1.000000 0.000000 0.000000
vn -1.000000 0.000000 0.000000
vn -1.000000 0.000000 0.000000
vn 0.000000 -1.000000 0.000000
vn 0.000000 -1.000000 0.000000
vn 0.000000 -1.000000 0.000000
vn 0.000000 -1.000000 0.000000
vn 0.000000 -1.000000 0.000000
vn 0.000000 -1.000000 0.000000
vn 0.000000 -1.000000 0.000000
vn 0.000000 -1.000000 0.000000
vn 0.000000 1.000000 0.000000
vn 0.000000 1.000000 0.000000
vn 0.000000 1.000000 0.000000
vn 0.000000 1.000000 0.000000
vn 0.000000 -1.000000 0.000000
vn 0.000000 -1.000000 0.000000
vn 0.000000 -1.000000 0.000000
vn 0.000000 -1.000000 0.000000
vn 0.000000 1.000000 0.000000
vn 0.000000 1.000000 0.000000
vn 0.000000 1.000000 0.000000
vn 0.000000 1.000000 0.000000
vn 0.000000 -1.000000 0.000000
vn 0.000000 -1.000000 0.000000
vn 0.000000 -1.000000 0.000000
vn 0.000000 -1.000000 0.000000
vn 1.000000 0.000000 0.000000
vn 1.000000 0.000000 0.000000
vn 1.000000 0.000000 0.000000
vn 1.000000 0.000000 0.000000
vn 0.000000 1.000000 0.000000
vn 0.000000 1.000000 0.000000
vn 0.000000 1.000000 0.000000
vn 0.000000 1.000000 0.000000
vn -1.000000 0.000000 0.000000
vn -1.000000 0.000000 0.000000
vn -1.000000 0.000000 0.000000
vn -1.000000 0.000000 0.000000
vn 1.000000 0.000000 0.000000
vn 1.000000 0.000000 0.000000
vn 1.000000 0.000000 0.000000
vn 1.000000 0.000000 0.000000
vn 0.000000 1.000000 0.000000
vn 0.000000 1.000000 0.000000
vn 0.000000 1.000000 0.000000
vn 0.000000 1.000000 0.000000
vn -1.000000 0.000000 0.000000
vn -1.000000 0.000000 0.000000
vn -1.000000 0.000000 0.000000
vn -1.000000 0.000000 0.000000
vn 1.000000 0.000000 0.000000
vn 1.000000 0.000000 0.000000
vn 1.000000 0.000000 0.000000
vn 1.000000 0.000000 0.000000
vn 0.000000 1.000000 0.000000
vn 0.000000 1.000000 0.000000
vn 0.000000 1.000000 0.000000
vn 0.000000 1.000000 0.000000
vn -1.000000 0.000000 0.000000
vn -1.000000 0.000000 0.000000
vn -1.000000 0.000000 0.000000
vn -1.000000 0.000000 0.000000
vn 0.000000 1.000000 0.000000
vn 0.000000 1.000000 0.000000
vn 0.000000 1.000000 0.000000
vn 0.000000 1.000000 0.000000
vn 0.000000 -1.000000 0.000000
vn 0.000000 -1.000000 0.000000
vn 0.000000 -1.000000 0.000000
vn 0.000000 -1.000000 0.000000
vn 1.000000 0.000000 0.000000
vn 1.000000 0.000000 0.000000
vn 1.000000 0.000000 0.000000
vn 1.000000 0.000000 0.000000
f 25/1/1 24/2/2 27/3/3
f 27/3/3 24/2/2 26/4/4
f 29/5/5 28/6/6 31/7/7
f 31/7/7 28/6/6 30/8/8
f 31/7/7 30/8/8 33/9/9
f 33/9/9 30/8/8 32/10/10
f 34/11/11 33/9/9 25/1/1
f 25/1/1 33/9/9 32/10/10
f 34/11/11 25/1/1 35/12/12
f 35/12/12 25/1/1 27/3/3
f 36/13/13 35/12/12 37/14/14
f 37/14/14 35/12/12 27/3/3
f 39/15/15 38/16/16 31/7/7
f 31/7/7 38/16/16 29/5/5
f 39/15/15 31/7/7 40/17/17
f 40/17/17 31/7/7 33/9/9
f 42/18/18 41/19/19 35/12/12
f 35/12/12 41/19/19 34/11/11
f 44/20/20 43/21/21 40/17/17
f 40/17/17 43/21/21 39/15/15
f 45/22/22 44/20/20 46/23/23
f 46/23/23 44/20/20 40/17/17
f 6/24/24 7/25/25 1/26/26
f 1/26/26 7/25/25 2/27/27
f 9/28/28 10/29/29 3/30/30
f 3/30/30 10/29/29 4/31/31
f 10/29/29 11/32/32 4/31/31
f 4/31/31 11/32/32 5/33/33
f 12/34/34 6/24/24 11/32/32
f 11/32/32 6/24/24 5/33/33
f 12/34/34 13/35/35 6/24/24
f 6/24/24 13/35/35 7/25/25
f 14/36/36 8/37/37 13/35/35
f 13/35/35 8/37/37 7/25/25
f 16/38/38 10/29/29 15/39/39
f 15/39/39 10/29/29 9/28/28
f 16/38/38 17/40/40 10/29/29
f 10/29/29 17/40/40 11/32/32
f 20/41/41 13/35/35 19/42/42
f 19/42/42 13/35/35 12/34/34
f 22/43/43 17/40/40 21/44/44
f 21/44/44 17/40/40 16/38/38
f 23/45/45 18/46/46 22/43/43
f 22/43/43 18/46/46 17/40/40
f 6/24/47 1/26/48 25/1/49
f 25/1/49 1/26/48 24/2/50
f 1/26/51 2/27/52 24/2/53
f 24/2/53 2/27/52 26/4/54
f 2/27/55 7/25/56 26/4/57
f 26/4/57 7/25/56 27/3/58
f 9/28/59 3/30/60 29/5/61
f 29/5/61 3/30/60 28/6/62
f 3/30/63 4/31/64 28/6/65
f 28/6/65 4/31/64 30/8/66
f 4/31/67 5/33/68 30/8/69
f 30/8/69 5/33/68 32/10/70
f 12/34/71 11/32/72 34/11/73
f 34/11/73 11/32/72 33/9/74
f 5/33/75 6/24/76 32/10/77
f 32/10/77 6/24/76 25/1/78
f 14/36/79 13/35/80 36/13/81
f 36/13/81 13/35/80 35/12/82
f 7/25/83 8/37/84 27/3/85
f 27/3/85 8/37/84 37/14/86
f 8/37/87 14/36/88 37/14/89
f 37/14/89 14/36/88 36/13/90
f 16/38/91 15/39/92 39/15/93
f 39/15/93 15/39/92 38/16/94
f 15/39/95 9/28/96 38/16/97
f 38/16/97 9/28/96 29/5/98
f 11/32/99 17/40/100 33/9/101
f 33/9/101 17/40/100 40/17/102
f 20/41/103 19/42/104 42/18/105
f 42/18/105 19/42/104 41/19/106
f 19/42/107 12/34/108 41/19/109
f 41/19/109 12/34/108 34/11/110
f 13/35/111 20/41/112 35/12/113
f 35/12/113 20/41/112 42/18/114
f 22/43/115 21/44/116 44/20/117
f 44/20/117 21/44/116 43/21/118
f 21/44/119 16/38/120 43/21/121
f 43/21/121 16/38/120 39/15/122
f 23/45/123 22/43/124 45/22/125
f 45/22/125 22/43/124 44/20/126
f 17/40/127 18/46/128 40/17/129
f 40/17/129 18/46/128 46/23/130
f 18/46/131 23/45/132 46/23/133
f 46/23/133 23/45/132 45/22/134
