# This file uses centimeters as units for non-parametric coordinates.

v 0.069444 0.002366 -0.140810
v 0.263888 0.002366 -0.140810
v -0.263888 0.669033 -0.140810
v 0.069444 0.669033 -0.140810
v -0.263888 0.752366 -0.140810
v -0.041667 0.752366 -0.140810
v 0.069444 0.752366 -0.140810
v -0.041667 0.863477 -0.140810
v 0.069444 0.863477 -0.140810
v 0.069444 0.974589 -0.140810
v 0.263888 0.974589 -0.140810
v 0.263888 0.753243 -0.140810
v 0.263888 0.863916 -0.140810
v 0.263888 0.669345 -0.140810
v -0.263888 0.752366 0.133141
v -0.041667 0.752366 0.133141
v -0.263888 0.669033 0.133141
v 0.069444 0.669033 0.133141
v 0.069444 0.752366 0.133141
v -0.041667 0.863477 0.133141
v 0.069444 0.863477 0.133141
v 0.069444 0.974589 0.133141
v 0.263888 0.974589 0.133141
v 0.263888 0.863916 0.133141
v 0.263888 0.753243 0.133141
v 0.263888 0.669345 0.133141
v 0.069444 0.002366 0.133141
v 0.263888 0.002366 0.133141
vt 0.000000 0.771429
vt 0.000000 0.685714
vt 0.421052 0.771429
vt 0.631578 0.685714
vt 0.631578 0.771429
vt 0.631578 0.885714
vt 0.421052 0.885714
vt 1.000000 1.000000
vt 0.631578 1.000000
vt 1.000000 0.886165
vt 1.000000 0.772331
vt 1.000000 0.686035
vt 1.000000 0.000000
vt 0.631578 0.000000
vt 0.631578 0.771429
vt 0.631578 0.685714
vt 0.421052 0.771429
vt 0.000000 0.685714
vt 0.000000 0.771429
vt 0.631578 0.885714
vt 0.421052 0.885714
vt 1.000000 1.000000
vt 1.000000 0.886165
vt 0.631578 1.000000
vt 1.000000 0.772331
vt 1.000000 0.686035
vt 1.000000 0.000000
vt 0.631578 0.000000
vn 0.000000 0.000000 1.000000
vn 0.000000 0.000000 1.000000
vn 0.000000 0.000000 1.000000
vn -0.000000 0.000000 1.000000
vn -0.000000 0.000000 1.000000
vn -0.000000 0.000000 1.000000
vn 0.000000 0.000000 1.000000
vn 0.000000 0.000000 1.000000
vn -0.000000 0.000000 1.000000
vn -0.000000 0.000000 1.000000
vn -0.000000 0.000000 1.000000
vn 0.000000 0.000000 1.000000
vn -0.000000 0.000000 1.000000
vn 0.000000 0.000000 1.000000
vn -0.000000 0.000000 1.000000
vn 0.000000 0.000000 1.000000
vn 0.000000 0.000000 1.000000
vn 0.000000 0.000000 1.000000
vn 0.000000 0.000000 1.000000
vn 0.000000 0.000000 -1.000000
vn 0.000000 0.000000 -1.000000
vn 0.000000 0.000000 -1.000000
vn 0.000000 0.000000 -1.000000
vn 0.000000 0.000000 -1.000000
vn 0.000000 0.000000 -1.000000
vn 0.000000 0.000000 -1.000000
vn 0.000000 0.000000 -1.000000
vn 0.000000 0.000000 -1.000000
vn 0.000000 0.000000 -1.000000
vn 0.000000 0.000000 -1.000000
vn 0.000000 0.000000 -1.000000
vn 0.000000 0.000000 -1.000000
vn 0.000000 0.000000 -1.000000
vn 0.000000 0.000000 -1.000000
vn -0.000000 0.000000 -1.000000
vn -0.000000 0.000000 -1.000000
vn -0.000000 0.000000 -1.000000
vn 0.000000 0.000000 -1.000000
vn 0.000000 1.000000 0.000000
vn 0.000000 1.000000 0.000000
vn 0.000000 1.000000 0.000000
vn 0.000000 1.000000 0.000000
vn -1.000000 0.000000 0.000000
vn -1.000000 0.000000 0.000000
vn -1.000000 0.000000 0.000000
vn -1.000000 0.000000 0.000000
vn 0.000000 -1.000000 0.000000
vn 0.000000 -1.000000 0.000000
vn 0.000000 -1.000000 0.000000
vn 0.000000 -1.000000 0.000000
vn 0.000000 1.000000 0.000000
vn 0.000000 1.000000 0.000000
vn 0.000000 1.000000 0.000000
vn 0.000000 1.000000 0.000000
vn -1.000000 0.000000 0.000000
vn -1.000000 0.000000 0.000000
vn -1.000000 0.000000 0.000000
vn -1.000000 0.000000 0.000000
vn 0.000000 1.000000 0.000000
vn 0.000000 1.000000 0.000000
vn 0.000000 1.000000 0.000000
vn 0.000000 1.000000 0.000000
vn -1.000000 0.000000 0.000000
vn -1.000000 0.000000 0.000000
vn -1.000000 0.000000 0.000000
vn -1.000000 0.000000 0.000000
vn 1.000000 0.000000 0.000000
vn 1.000000 0.000000 0.000000
vn 1.000000 0.000000 0.000000
vn 1.000000 0.000000 0.000000
vn 1.000000 0.000000 0.000000
vn 1.000000 0.000000 0.000000
vn 1.000000 0.000000 0.000000
vn 1.000000 0.000000 0.000000
vn 1.000000 0.000000 0.000000
vn 1.000000 0.000000 0.000000
vn 1.000000 0.000000 0.000000
vn 1.000000 0.000000 0.000000
vn -1.000000 0.000000 0.000000
vn -1.000000 0.000000 0.000000
vn -1.000000 0.000000 0.000000
vn -1.000000 0.000000 0.000000
vn 0.000000 -1.000000 0.000000
vn 0.000000 -1.000000 0.000000
vn 0.000000 -1.000000 0.000000
vn 0.000000 -1.000000 0.000000
vn 1.000000 0.000000 0.000000
vn 1.000000 0.000000 0.000000
vn 1.000000 0.000000 0.000000
vn 1.000000 0.000000 0.000000
f 15/1/1 17/2/2 16/3/3
f 17/2/2 18/4/4 16/3/3
f 16/3/3 18/4/4 19/5/5
f 21/6/6 20/7/7 19/5/5
f 19/5/5 20/7/7 16/3/3
f 23/8/8 22/9/9 24/10/10
f 24/10/10 22/9/9 21/6/11
f 25/11/12 19/5/5 26/12/13
f 26/12/13 19/5/5 18/4/4
f 24/10/14 21/6/6 25/11/15
f 25/11/15 21/6/6 19/5/5
f 26/12/16 18/4/17 28/13/18
f 28/13/18 18/4/17 27/14/19
f 7/15/20 4/16/21 6/17/22
f 4/16/21 3/18/23 6/17/22
f 6/17/22 3/18/23 5/19/24
f 9/20/25 7/15/20 8/21/26
f 8/21/26 7/15/20 6/17/22
f 11/22/27 13/23/28 10/24/29
f 10/24/29 13/23/28 9/20/30
f 12/25/31 14/26/32 7/15/20
f 7/15/20 14/26/32 4/16/21
f 13/23/33 12/25/34 9/20/25
f 9/20/25 12/25/34 7/15/20
f 14/26/35 2/27/36 4/16/37
f 4/16/37 2/27/36 1/28/38
f 6/17/39 5/19/40 16/3/41
f 16/3/41 5/19/40 15/1/42
f 5/19/43 3/18/44 15/1/45
f 15/1/45 3/18/44 17/2/46
f 3/18/47 4/16/48 17/2/49
f 17/2/49 4/16/48 18/4/50
f 9/20/51 8/21/52 21/6/53
f 21/6/53 8/21/52 20/7/54
f 8/21/55 6/17/56 20/7/57
f 20/7/57 6/17/56 16/3/58
f 11/22/59 10/24/60 23/8/61
f 23/8/61 10/24/60 22/9/62
f 10/24/63 9/20/64 22/9/65
f 22/9/65 9/20/64 21/6/66
f 13/23/67 11/22/68 24/10/69
f 24/10/69 11/22/68 23/8/70
f 14/26/71 12/25/72 26/12/73
f 26/12/73 12/25/72 25/11/74
f 12/25/75 13/23/76 25/11/77
f 25/11/77 13/23/76 24/10/78
f 4/16/79 1/28/80 18/4/81
f 18/4/81 1/28/80 27/14/82
f 1/28/83 2/27/84 27/14/85
f 27/14/85 2/27/84 28/13/86
f 2/27/87 14/26/88 28/13/89
f 28/13/89 14/26/88 26/12/90
