# This file uses centimeters as units for non-parametric coordinates.

v -0.208334 0.002366 -0.140810
v -0.097223 0.002366 -0.140810
v 0.013889 0.002366 -0.140810
v -0.208334 0.335700 -0.140810
v -0.097223 0.335700 -0.140810
v 0.013889 0.335700 -0.140810
v 0.041666 0.335700 -0.140810
v 0.125000 0.335700 -0.140810
v -0.097223 0.530144 -0.140810
v 0.013889 0.530144 -0.140810
v 0.125000 0.530144 -0.140810
v 0.236111 0.530144 -0.140810
v 0.013889 0.752366 -0.140810
v 0.125000 0.752366 -0.140810
v 0.236111 0.752366 -0.140810
v 0.319445 0.752366 -0.140810
v -0.319445 0.863477 -0.140810
v 0.125000 0.863477 -0.140810
v 0.236111 0.863477 -0.140810
v 0.319445 0.863477 -0.140810
v -0.319445 0.974589 -0.140810
v 0.125000 0.974589 -0.140810
v 0.236111 0.974589 -0.140810
v 0.319445 0.974589 -0.140810
v -0.208334 0.335700 0.133141
v -0.097223 0.335700 0.133141
v -0.208334 0.002366 0.133141
v -0.097223 0.002366 0.133141
v 0.013889 0.002366 0.133141
v 0.013889 0.335700 0.133141
v -0.097223 0.530144 0.133141
v 0.013889 0.530144 0.133141
v 0.041666 0.335700 0.133141
v 0.125000 0.335700 0.133141
v 0.125000 0.530144 0.133141
v 0.013889 0.752366 0.133141
v 0.125000 0.752366 0.133141
v 0.236111 0.530144 0.133141
v 0.236111 0.752366 0.133141
v 0.125000 0.863477 0.133141
v 0.236111 0.863477 0.133141
v 0.319445 0.752366 0.133141
v 0.319445 0.863477 0.133141
v -0.319445 0.974589 0.133141
v 0.125000 0.974589 0.133141
v -0.319445 0.863477 0.133141
v 0.236111 0.974589 0.133141
v 0.319445 0.974589 0.133141
vt 0.347825 0.342857
vt 0.173912 0.342857
vt 0.347825 0.000000
vt 0.173912 0.000000
vt 0.521740 0.342857
vt 0.521740 0.000000
vt 0.521740 0.542857
vt 0.347825 0.542857
vt 0.695652 0.542857
vt 0.565216 0.342857
vt 0.695652 0.342857
vt 0.695652 0.771429
vt 0.521740 0.771429
vt 0.869564 0.771429
vt 0.869564 0.542857
vt 0.695652 0.885714
vt 0.869564 0.885714
vt 1.000000 0.885714
vt 1.000000 0.771429
vt 0.695652 1.000000
vt 0.000000 1.000000
vt 0.000000 0.885714
vt 0.869564 1.000000
vt 1.000000 1.000000
vt 0.347825 0.342857
vt 0.347825 0.000000
vt 0.173912 0.342857
vt 0.173912 0.000000
vt 0.521740 0.342857
vt 0.521740 0.000000
vt 0.521740 0.542857
vt 0.347825 0.542857
vt 0.695652 0.542857
vt 0.565216 0.342857
vt 0.695652 0.342857
vt 0.695652 0.771429
vt 0.521740 0.771429
vt 0.869564 0.771429
vt 0.869564 0.542857
vt 0.695652 0.885714
vt 0.869564 0.885714
vt 1.000000 0.885714
vt 1.000000 0.771429
vt 0.695652 1.000000
vt 0.000000 1.000000
vt 0.000000 0.885714
vt 0.869564 1.000000
vt 1.000000 1.000000
vn 0.000000 0.000000 1.000000
vn 0.000000 0.000000 1.000000
vn 0.000000 0.000000 1.000000
vn 0.000000 0.000000 1.000000
vn 0.000000 0.000000 1.000000
vn 0.000000 0.000000 1.000000
vn 0.000000 0.000000 1.000000
vn 0.000000 0.000000 1.000000
vn 0.000000 0.000000 1.000000
vn 0.000000 0.000000 1.000000
vn 0.000000 0.000000 1.000000
vn 0.000000 0.000000 1.000000
vn 0.000000 0.000000 1.000000
vn 0.000000 0.000000 1.000000
vn 0.000000 0.000000 1.000000
vn 0.000000 0.000000 1.000000
vn 0.000000 0.000000 1.000000
vn 0.000000 0.000000 1.000000
vn 0.000000 0.000000 1.000000
vn 0.000000 0.000000 1.000000
vn 0.000000 0.000000 1.000000
vn 0.000000 0.000000 1.000000
vn 0.000000 0.000000 1.000000
vn 0.000000 0.000000 1.000000
vn 0.000000 0.000000 -1.000000
vn 0.000000 0.000000 -1.000000
vn 0.000000 0.000000 -1.000000
vn 0.000000 0.000000 -1.000000
vn 0.000000 0.000000 -1.000000
vn 0.000000 0.000000 -1.000000
vn 0.000000 0.000000 -1.000000
vn 0.000000 0.000000 -1.000000
vn 0.000000 0.000000 -1.000000
vn 0.000000 0.000000 -1.000000
vn 0.000000 0.000000 -1.000000
vn 0.000000 0.000000 -1.000000
vn 0.000000 0.000000 -1.000000
vn 0.000000 0.000000 -1.000000
vn 0.000000 0.000000 -1.000000
vn 0.000000 0.000000 -1.000000
vn 0.000000 0.000000 -1.000000
vn 0.000000 0.000000 -1.000000
vn 0.000000 0.000000 -1.000000
vn 0.000000 0.000000 -1.000000
vn 0.000000 0.000000 -1.000000
vn 0.000000 0.000000 -1.000000
vn 0.000000 0.000000 -1.000000
vn 0.000000 0.000000 -1.000000
vn 0.000000 1.000000 0.000000
vn 0.000000 1.000000 0.000000
vn 0.000000 1.000000 0.000000
vn 0.000000 1.000000 0.000000
vn -1.000000 0.000000 0.000000
vn -1.000000 0.000000 0.000000
vn -1.000000 0.000000 0.000000
vn -1.000000 0.000000 0.000000
vn 0.000000 -1.000000 0.000000
vn 0.000000 -1.000000 0.000000
vn 0.000000 -1.000000 0.000000
vn 0.000000 -1.000000 0.000000
vn 0.000000 -1.000000 0.000000
vn 0.000000 -1.000000 0.000000
vn 0.000000 -1.000000 0.000000
vn 0.000000 -1.000000 0.000000
vn 1.000000 0.000000 0.000000
vn 1.000000 0.000000 0.000000
vn 1.000000 0.000000 0.000000
vn 1.000000 0.000000 0.000000
vn 0.000000 1.000000 0.000000
vn 0.000000 1.000000 0.000000
vn 0.000000 1.000000 0.000000
vn 0.000000 1.000000 0.000000
vn -1.000000 0.000000 0.000000
vn -1.000000 0.000000 0.000000
vn -1.000000 0.000000 0.000000
vn -1.000000 0.000000 0.000000
vn 0.000000 -1.000000 0.000000
vn 0.000000 -1.000000 0.000000
vn 0.000000 -1.000000 0.000000
vn 0.000000 -1.000000 0.000000
vn 0.000000 -1.000000 0.000000
vn 0.000000 -1.000000 0.000000
vn 0.000000 -1.000000 0.000000
vn 0.000000 -1.000000 0.000000
vn 1.000000 0.000000 0.000000
vn 1.000000 0.000000 0.000000
vn 1.000000 0.000000 0.000000
vn 1.000000 0.000000 0.000000
vn 0.000000 1.000000 0.000000
vn 0.000000 1.000000 0.000000
vn 0.000000 1.000000 0.000000
vn 0.000000 1.000000 0.000000
vn -1.000000 0.000000 0.000000
vn -1.000000 0.000000 0.000000
vn -1.000000 0.000000 0.000000
vn -1.000000 0.000000 0.000000
vn 0.000000 -1.000000 0.000000
vn 0.000000 -1.000000 0.000000
vn 0.000000 -1.000000 0.000000
vn 0.000000 -1.000000 0.000000
vn 1.000000 0.000000 0.000000
vn 1.000000 0.000000 0.000000
vn 1.000000 0.000000 0.000000
vn 1.000000 0.000000 0.000000
vn -1.000000 0.000000 0.000000
vn -1.000000 0.000000 0.000000
vn -1.000000 0.000000 0.000000
vn -1.000000 0.000000 0.000000
vn 0.000000 -1.000000 0.000000
vn 0.000000 -1.000000 0.000000
vn 0.000000 -1.000000 0.000000
vn 0.000000 -1.000000 0.000000
vn 1.000000 0.000000 0.000000
vn 1.000000 0.000000 0.000000
vn 1.000000 0.000000 0.000000
vn 1.000000 0.000000 0.000000
vn 0.000000 1.000000 0.000000
vn 0.000000 1.000000 0.000000
vn 0.000000 1.000000 0.000000
vn 0.000000 1.000000 0.000000
vn -1.000000 0.000000 0.000000
vn -1.000000 0.000000 0.000000
vn -1.000000 0.000000 0.000000
vn -1.000000 0.000000 0.000000
vn 0.000000 -1.000000 0.000000
vn 0.000000 -1.000000 0.000000
vn 0.000000 -1.000000 0.000000
vn 0.000000 -1.000000 0.000000
vn 0.000000 1.000000 0.000000
vn 0.000000 1.000000 0.000000
vn 0.000000 1.000000 0.000000
vn 0.000000 1.000000 0.000000
vn 0.000000 1.000000 0.000000
vn 0.000000 1.000000 0.000000
vn 0.000000 1.000000 0.000000
vn 0.000000 1.000000 0.000000
vn 1.000000 0.000000 0.000000
vn 1.000000 0.000000 0.000000
vn 1.000000 0.000000 0.000000
vn 1.000000 0.000000 0.000000
f 26/1/1 25/2/2 28/3/3
f 28/3/3 25/2/2 27/4/4
f 26/1/1 28/3/3 30/5/5
f 30/5/5 28/3/3 29/6/6
f 32/7/7 31/8/8 30/5/5
f 30/5/5 31/8/8 26/1/1
f 32/7/7 30/5/5 35/9/9
f 30/5/5 33/10/10 35/9/9
f 33/10/10 34/11/11 35/9/9
f 37/12/12 36/13/13 35/9/9
f 35/9/9 36/13/13 32/7/7
f 37/12/12 35/9/9 39/14/14
f 39/14/14 35/9/9 38/15/15
f 40/16/16 37/12/12 41/17/17
f 41/17/17 37/12/12 39/14/14
f 41/17/17 39/14/14 43/18/18
f 43/18/18 39/14/14 42/19/19
f 45/20/20 44/21/21 40/16/16
f 40/16/16 44/21/21 46/22/22
f 47/23/23 45/20/20 41/17/17
f 41/17/17 45/20/20 40/16/16
f 48/24/24 47/23/23 43/18/18
f 43/18/18 47/23/23 41/17/17
f 5/25/25 2/26/26 4/27/27
f 4/27/27 2/26/26 1/28/28
f 5/25/25 6/29/29 2/26/26
f 2/26/26 6/29/29 3/30/30
f 10/31/31 6/29/29 9/32/32
f 9/32/32 6/29/29 5/25/25
f 10/31/31 11/33/33 6/29/29
f 6/29/29 11/33/33 7/34/34
f 11/33/33 8/35/35 7/34/34
f 14/36/36 11/33/33 13/37/37
f 13/37/37 11/33/33 10/31/31
f 14/36/36 15/38/38 11/33/33
f 11/33/33 15/38/38 12/39/39
f 18/40/40 19/41/41 14/36/36
f 14/36/36 19/41/41 15/38/38
f 19/41/41 20/42/42 15/38/38
f 15/38/38 20/42/42 16/43/43
f 22/44/44 18/40/40 21/45/45
f 21/45/45 18/40/40 17/46/46
f 23/47/47 19/41/41 22/44/44
f 22/44/44 19/41/41 18/40/40
f 24/48/48 20/42/42 23/47/47
f 23/47/47 20/42/42 19/41/41
f 5/25/49 4/27/50 26/1/51
f 26/1/51 4/27/50 25/2/52
f 4/27/53 1/28/54 25/2/55
f 25/2/55 1/28/54 27/4/56
f 1/28/57 2/26/58 27/4/59
f 27/4/59 2/26/58 28/3/60
f 2/26/61 3/30/62 28/3/63
f 28/3/63 3/30/62 29/6/64
f 3/30/65 6/29/66 29/6/67
f 29/6/67 6/29/66 30/5/68
f 10/31/69 9/32/70 32/7/71
f 32/7/71 9/32/70 31/8/72
f 9/32/73 5/25/74 31/8/75
f 31/8/75 5/25/74 26/1/76
f 6/29/77 7/34/78 30/5/79
f 30/5/79 7/34/78 33/10/80
f 7/34/81 8/35/82 33/10/83
f 33/10/83 8/35/82 34/11/84
f 8/35/85 11/33/86 34/11/87
f 34/11/87 11/33/86 35/9/88
f 14/36/89 13/37/90 37/12/91
f 37/12/91 13/37/90 36/13/92
f 13/37/93 10/31/94 36/13/95
f 36/13/95 10/31/94 32/7/96
f 11/33/97 12/39/98 35/9/99
f 35/9/99 12/39/98 38/15/100
f 12/39/101 15/38/102 38/15/103
f 38/15/103 15/38/102 39/14/104
f 18/40/105 14/36/106 40/16/107
f 40/16/107 14/36/106 37/12/108
f 15/38/109 16/43/110 39/14/111
f 39/14/111 16/43/110 42/19/112
f 16/43/113 20/42/114 42/19/115
f 42/19/115 20/42/114 43/18/116
f 22/44/117 21/45/118 45/20/119
f 45/20/119 21/45/118 44/21/120
f 21/45/121 17/46/122 44/21/123
f 44/21/123 17/46/122 46/22/124
f 17/46/125 18/40/126 46/22/127
f 46/22/127 18/40/126 40/16/128
f 23/47/129 22/44/130 47/23/131
f 47/23/131 22/44/130 45/20/132
f 24/48/133 23/47/134 48/24/135
f 48/24/135 23/47/134 47/23/136
f 20/42/137 24/48/138 43/18/139
f 43/18/139 24/48/138 48/24/140
