# This file uses centimeters as units for non-parametric coordinates.

v 0.457998 1.117920 -0.332755
v 0.174940 1.117920 -0.538409
v -0.174940 1.117920 -0.538409
v -0.457998 1.117920 -0.332755
v -0.566116 1.117920 -0.000000
v -0.457998 1.117920 0.332755
v -0.174940 1.117920 0.538408
v 0.174940 1.117920 0.538408
v 0.457998 1.117920 0.332755
v 0.566116 1.117920 -0.000000
v -0.000000 1.045082 -0.000000
v 0.778543 1.187651 -0.565645
v 0.297377 1.187651 -0.915233
v -0.297377 1.187651 -0.915233
v -0.778543 1.187651 -0.565645
v -0.962332 1.187651 -0.000000
v -0.778543 1.187651 0.565644
v -0.297377 1.187651 0.915232
v 0.297377 1.187651 0.915232
v 0.778543 1.187651 0.565644
v 0.962332 1.187651 -0.000000
v 1.082004 1.294309 -0.786121
v 0.413288 1.294309 -1.271972
v -0.413289 1.294309 -1.271972
v -1.082003 1.294309 -0.786121
v -1.337430 1.294309 -0.000000
v -1.082003 1.294309 0.786121
v -0.413288 1.294309 1.271971
v 0.413288 1.294309 1.271971
v 1.082004 1.294309 0.786121
v 1.337430 1.294309 -0.000000
vt 0.599434 0.329459
vt 0.676011 0.434859
vt 0.475528 0.500000
vt 0.686153 0.210100
vt 0.816326 0.389268
vt 0.676011 0.565141
vt 0.475528 0.289200
vt 0.475528 0.141664
vt 0.768250 0.097103
vt 0.949162 0.346107
vt 0.816326 0.610732
vt 0.599434 0.670541
vt 0.351623 0.329459
vt 0.264904 0.210100
vt 0.475528 0.001992
vt 0.949162 0.653893
vt 0.686153 0.789900
vt 0.475528 0.710800
vt 0.275046 0.434859
vt 0.134731 0.389268
vt 0.182807 0.097103
vt 0.768250 0.902897
vt 0.475528 0.858336
vt 0.351623 0.670541
vt 0.275046 0.565141
vt 0.134731 0.610732
vt 0.001895 0.346107
vt 0.475528 0.998008
vt 0.264904 0.789900
vt 0.001895 0.653893
vt 0.182807 0.902897
vn -0.078801 0.990973 0.108459
vn -0.078801 0.990973 0.108459
vn -0.078801 0.990973 0.108459
vn 0.000000 0.990973 0.134063
vn 0.000000 0.990973 0.134063
vn 0.000000 0.990973 0.134063
vn 0.078801 0.990973 0.108460
vn 0.078801 0.990973 0.108460
vn 0.078801 0.990973 0.108460
vn 0.127502 0.990973 0.041427
vn 0.127502 0.990973 0.041427
vn 0.127502 0.990973 0.041427
vn 0.127502 0.990973 -0.041427
vn 0.127502 0.990973 -0.041427
vn 0.127502 0.990973 -0.041427
vn 0.078801 0.990973 -0.108460
vn 0.078801 0.990973 -0.108460
vn 0.078801 0.990973 -0.108460
vn 0.000000 0.990973 -0.134063
vn 0.000000 0.990973 -0.134063
vn 0.000000 0.990973 -0.134063
vn -0.078801 0.990973 -0.108459
vn -0.078801 0.990973 -0.108459
vn -0.078801 0.990973 -0.108459
vn -0.127502 0.990973 -0.041428
vn -0.127502 0.990973 -0.041428
vn -0.127502 0.990973 -0.041428
vn -0.127502 0.990973 0.041428
vn -0.127502 0.990973 0.041428
vn -0.127502 0.990973 0.041428
vn -0.106953 0.983306 0.147208
vn -0.106953 0.983306 0.147208
vn -0.106953 0.983306 0.147208
vn -0.106953 0.983306 0.147208
vn 0.000000 0.983306 0.181959
vn 0.000000 0.983306 0.181959
vn 0.000000 0.983306 0.181959
vn 0.000000 0.983306 0.181959
vn 0.106953 0.983306 0.147208
vn 0.106953 0.983306 0.147208
vn 0.106953 0.983306 0.147208
vn 0.106953 0.983306 0.147208
vn 0.173054 0.983306 0.056228
vn 0.173054 0.983306 0.056229
vn 0.173054 0.983306 0.056229
vn 0.173053 0.983306 0.056229
vn 0.173054 0.983306 -0.056229
vn 0.173054 0.983306 -0.056229
vn 0.173054 0.983306 -0.056229
vn 0.173054 0.983306 -0.056228
vn 0.106953 0.983306 -0.147208
vn 0.106953 0.983306 -0.147208
vn 0.106953 0.983306 -0.147208
vn 0.106953 0.983306 -0.147208
vn 0.000000 0.983306 -0.181960
vn 0.000000 0.983306 -0.181959
vn 0.000000 0.983306 -0.181959
vn 0.000000 0.983306 -0.181959
vn -0.106953 0.983306 -0.147208
vn -0.106953 0.983306 -0.147208
vn -0.106953 0.983306 -0.147208
vn -0.106953 0.983306 -0.147208
vn -0.173054 0.983306 -0.056229
vn -0.173054 0.983306 -0.056229
vn -0.173054 0.983306 -0.056229
vn -0.173054 0.983306 -0.056228
vn -0.173054 0.983306 0.056228
vn -0.173054 0.983306 0.056228
vn -0.173054 0.983306 0.056228
vn -0.173053 0.983306 0.056228
vn -0.168372 0.958095 0.231743
vn -0.168372 0.958095 0.231744
vn -0.168372 0.958095 0.231744
vn -0.168372 0.958095 0.231744
vn 0.000000 0.958095 0.286451
vn 0.000000 0.958095 0.286451
vn 0.000000 0.958095 0.286451
vn 0.000000 0.958095 0.286451
vn 0.168372 0.958095 0.231743
vn 0.168372 0.958095 0.231744
vn 0.168372 0.958095 0.231744
vn 0.168372 0.958095 0.231744
vn 0.272432 0.958095 0.088518
vn 0.272432 0.958095 0.088518
vn 0.272432 0.958095 0.088518
vn 0.272432 0.958095 0.088519
vn 0.272432 0.958095 -0.088518
vn 0.272431 0.958095 -0.088518
vn 0.272431 0.958095 -0.088518
vn 0.272431 0.958095 -0.088519
vn 0.168372 0.958095 -0.231744
vn 0.168372 0.958095 -0.231744
vn 0.168372 0.958095 -0.231744
vn 0.168372 0.958095 -0.231745
vn 0.000000 0.958095 -0.286451
vn 0.000000 0.958095 -0.286451
vn 0.000000 0.958095 -0.286451
vn 0.000000 0.958095 -0.286451
vn -0.168372 0.958095 -0.231743
vn -0.168372 0.958095 -0.231744
vn -0.168372 0.958095 -0.231744
vn -0.168372 0.958095 -0.231744
vn -0.272431 0.958095 -0.088519
vn -0.272431 0.958095 -0.088518
vn -0.272431 0.958095 -0.088518
vn -0.272431 0.958095 -0.088518
vn -0.272431 0.958095 0.088518
vn -0.272431 0.958095 0.088518
vn -0.272431 0.958095 0.088518
vn -0.272431 0.958095 0.088518
f 1/1/1 2/2/2 11/3/3
f 2/2/4 3/6/5 11/3/6
f 3/6/7 4/12/8 11/3/9
f 4/12/10 5/18/11 11/3/12
f 5/18/13 6/24/14 11/3/15
f 6/24/16 7/25/17 11/3/18
f 7/25/19 8/19/20 11/3/21
f 8/19/22 9/13/23 11/3/24
f 9/13/25 10/7/26 11/3/27
f 10/7/28 1/1/29 11/3/30
f 2/2/31 1/1/32 13/5/33
f 13/5/33 1/1/32 12/4/34
f 3/6/35 2/2/36 14/11/37
f 14/11/37 2/2/36 13/5/38
f 4/12/39 3/6/40 15/17/41
f 15/17/41 3/6/40 14/11/42
f 5/18/43 4/12/44 16/23/45
f 16/23/45 4/12/44 15/17/46
f 6/24/47 5/18/48 17/29/49
f 17/29/49 5/18/48 16/23/50
f 7/25/51 6/24/52 18/26/53
f 18/26/53 6/24/52 17/29/54
f 8/19/55 7/25/56 19/20/57
f 19/20/57 7/25/56 18/26/58
f 9/13/59 8/19/60 20/14/61
f 20/14/61 8/19/60 19/20/62
f 10/7/63 9/13/64 21/8/65
f 21/8/65 9/13/64 20/14/66
f 1/1/67 10/7/68 12/4/69
f 12/4/69 10/7/68 21/8/70
f 13/5/71 12/4/72 23/10/73
f 23/10/73 12/4/72 22/9/74
f 14/11/75 13/5/76 24/16/77
f 24/16/77 13/5/76 23/10/78
f 15/17/79 14/11/80 25/22/81
f 25/22/81 14/11/80 24/16/82
f 16/23/83 15/17/84 26/28/85
f 26/28/85 15/17/84 25/22/86
f 17/29/87 16/23/88 27/31/89
f 27/31/89 16/23/88 26/28/90
f 18/26/91 17/29/92 28/30/93
f 28/30/93 17/29/92 27/31/94
f 19/20/95 18/26/96 29/27/97
f 29/27/97 18/26/96 28/30/98
f 20/14/99 19/20/100 30/21/101
f 30/21/101 19/20/100 29/27/102
f 21/8/103 20/14/104 31/15/105
f 31/15/105 20/14/104 30/21/106
f 12/4/107 21/8/108 22/9/109
f 22/9/109 21/8/108 31/15/110
