# This file uses centimeters as units for non-parametric coordinates.

v 18.455970 -1.431445 -13.409048
v 7.049552 -1.431445 -21.696294
v -7.049555 -1.431445 -21.696292
v -18.455970 -1.431445 -13.409044
v -22.812831 -1.431445 0.000002
v -18.455968 -1.431445 13.409049
v -7.049551 -1.431445 21.696294
v 7.049554 -1.431445 21.696292
v 18.455968 -1.431445 13.409047
v 22.812831 -1.431445 0.000001
v 18.455970 35.431445 -13.409048
v 7.049552 35.431445 -21.696294
v -7.049555 35.431445 -21.696292
v -18.455970 35.431445 -13.409044
v -22.812831 35.431445 0.000002
v -18.455968 35.431445 13.409049
v -7.049551 35.431445 21.696294
v 7.049554 35.431445 21.696292
v 18.455968 35.431445 13.409047
v 22.812831 35.431445 0.000001
vt 0.200000 0.000000
vt 0.100000 0.000000
vt 0.100000 0.400000
vt 0.200000 0.400000
vt 0.000000 0.000000
vt 0.000000 0.400000
vt 0.300000 0.000000
vt 0.300000 0.400000
vt 1.000000 0.000000
vt 0.900000 0.000000
vt 0.900000 0.400000
vt 1.000000 0.400000
vt 0.800000 0.000000
vt 0.800000 0.400000
vt 0.700000 0.000000
vt 0.700000 0.400000
vt 0.700000 0.000000
vt 0.600000 0.000000
vt 0.600000 0.400000
vt 0.700000 0.400000
vt 0.500000 0.000000
vt 0.500000 0.400000
vt 0.500000 0.000000
vt 0.400000 0.000000
vt 0.400000 0.400000
vt 0.500000 0.400000
vt 0.300000 0.000000
vt 0.300000 0.400000
vn 0.587785 0.000000 -0.809017
vn 0.587785 0.000000 -0.809017
vn 0.587785 0.000000 -0.809017
vn 0.587785 0.000000 -0.809017
vn -0.000000 0.000000 -1.000000
vn -0.000000 0.000000 -1.000000
vn -0.000000 0.000000 -1.000000
vn -0.000000 0.000000 -1.000000
vn -0.587785 0.000000 -0.809017
vn -0.587785 0.000000 -0.809017
vn -0.587785 0.000000 -0.809017
vn -0.587785 0.000000 -0.809017
vn -0.951057 0.000000 -0.309017
vn -0.951057 0.000000 -0.309017
vn -0.951057 0.000000 -0.309017
vn -0.951057 0.000000 -0.309017
vn -0.951057 0.000000 0.309017
vn -0.951057 0.000000 0.309017
vn -0.951057 0.000000 0.309017
vn -0.951057 0.000000 0.309017
vn -0.587785 0.000000 0.809017
vn -0.587785 0.000000 0.809017
vn -0.587785 0.000000 0.809017
vn -0.587785 0.000000 0.809017
vn 0.000000 0.000000 1.000000
vn 0.000000 0.000000 1.000000
vn 0.000000 0.000000 1.000000
vn 0.000000 0.000000 1.000000
vn 0.587785 0.000000 0.809017
vn 0.587785 0.000000 0.809017
vn 0.587785 0.000000 0.809017
vn 0.587785 0.000000 0.809017
vn 0.951057 0.000000 0.309017
vn 0.951057 0.000000 0.309017
vn 0.951057 0.000000 0.309017
vn 0.951057 0.000000 0.309017
vn 0.951057 0.000000 -0.309017
vn 0.951057 0.000000 -0.309017
vn 0.951057 0.000000 -0.309017
vn 0.951057 0.000000 -0.309017
f 1/7/1 2/1/2 11/8/3
f 11/8/3 2/1/2 12/4/4
f 2/1/5 3/2/6 12/4/7
f 12/4/7 3/2/6 13/3/8
f 3/2/9 4/5/10 13/3/11
f 13/3/11 4/5/10 14/6/12
f 4/9/13 5/10/14 14/12/15
f 14/12/15 5/10/14 15/11/16
f 5/10/17 6/13/18 15/11/19
f 15/11/19 6/13/18 16/14/20
f 6/13/21 7/15/22 16/14/23
f 16/14/23 7/15/22 17/16/24
f 7/17/25 8/18/26 17/20/27
f 17/20/27 8/18/26 18/19/28
f 8/18/29 9/21/30 18/19/31
f 18/19/31 9/21/30 19/22/32
f 9/23/33 10/24/34 19/26/35
f 19/26/35 10/24/34 20/25/36
f 10/24/37 1/27/38 20/25/39
f 20/25/39 1/27/38 11/28/40
