# This file uses centimeters as units for non-parametric coordinates.

v 0.041175 0.101901 -0.041204
v 0.008570 0.080951 -0.070828
v -0.024034 0.101901 -0.041204
v -0.037540 0.149019 0.030314
v -0.024034 0.149019 0.101833
v 0.008570 0.149019 0.131457
v 0.041175 0.149019 0.101833
v 0.054681 0.149019 0.030314
v 0.068816 0.073239 -0.101835
v 0.008570 0.054286 -0.091289
v -0.051675 0.073239 -0.101835
v -0.076630 0.189661 0.030314
v -0.051675 0.189661 0.162463
v 0.008570 0.189661 0.217201
v 0.068816 0.189661 0.162463
v 0.093771 0.189661 0.030314
v 0.087286 0.062837 -0.142347
v 0.008570 0.062779 -0.213942
v -0.070145 0.062837 -0.142347
v -0.102750 0.250486 0.030314
v -0.070145 0.250486 0.202975
v 0.008570 0.182634 0.274494
v 0.087286 0.250486 0.202975
v 0.119890 0.250486 0.030314
v 0.093771 0.322234 -0.156573
v 0.008570 0.322234 -0.233984
v -0.076630 0.322234 -0.156573
v -0.111921 0.322234 0.030314
v -0.076630 0.322234 0.217201
v 0.093771 0.322234 0.217201
v 0.129062 0.322234 0.030314
v 0.087286 0.393983 -0.142347
v 0.008570 0.393983 -0.213866
v -0.070145 0.393983 -0.142347
v -0.102750 0.393983 0.030314
v -0.070145 0.393983 0.202975
v 0.008570 0.425977 0.274494
v 0.087286 0.393983 0.202975
v 0.119890 0.393983 0.030314
v 0.068816 0.454808 -0.101835
v 0.008570 0.454808 -0.156573
v -0.051675 0.454808 -0.101835
v -0.076630 0.454808 0.030314
v -0.051675 0.454808 0.162463
v 0.008570 0.454808 0.217201
v 0.068816 0.454808 0.162463
v 0.093771 0.454808 0.030314
v 0.041175 0.495450 -0.041204
v 0.008570 0.495450 -0.070828
v -0.024034 0.495450 -0.041204
v -0.037540 0.495450 0.030314
v -0.024034 0.495450 0.101833
v 0.008570 0.495450 0.131457
v 0.041175 0.495450 0.101833
v 0.054681 0.495450 0.030314
v 0.008570 0.134747 0.030314
v 0.008570 0.509722 0.030314
v -0.042963 0.025312 0.402559
v 0.008570 0.025312 0.413512
v 0.008570 0.322234 0.433631
v -0.047209 0.322234 0.416785
v 0.060104 0.025312 0.402559
v 0.064350 0.322234 0.416785
v 0.008570 0.619157 0.413512
v -0.042963 0.619157 0.402559
v 0.060104 0.619157 0.402559
v 0.020715 0.547788 0.036616
v 0.009398 0.549824 -0.001652
v 0.007743 0.558362 0.129040
v -0.003137 0.548513 0.036266
v -0.106852 0.186604 -0.060862
v -0.139457 0.186604 0.111799
v -0.148629 0.212790 0.111799
v -0.113337 0.212790 -0.075088
v 0.152173 0.178420 0.098641
v 0.119568 0.178420 -0.074020
v 0.126053 0.205444 -0.088246
v 0.161345 0.205444 0.098641
v 0.093771 0.292386 -0.143937
v 0.008570 0.278587 -0.115070
v -0.076630 0.292386 -0.143953
v 0.090882 0.116915 -0.136676
v 0.008584 0.125987 -0.030434
v -0.073714 0.116915 -0.136685
v 0.135076 0.476809 0.027708
v 0.114731 0.483297 -0.069145
v 0.143672 0.389818 -0.085290
v 0.164018 0.383330 0.011564
v 0.072537 0.474050 0.062483
v 0.043764 0.483225 -0.074488
v 0.084693 0.351026 -0.097320
v 0.113466 0.341851 0.039651
v 0.164542 0.441919 -0.033501
v -0.114574 0.404248 -0.086503
v -0.094056 0.490287 -0.041638
v -0.100478 0.449158 0.048383
v -0.120996 0.363120 0.003518
v -0.053868 0.380782 -0.116372
v -0.024851 0.502459 -0.052922
v -0.033933 0.444294 0.074386
v -0.062950 0.322617 0.010937
v -0.133881 0.432571 -0.018259
vt 0.000000 0.125000
vt 0.125000 0.125000
vt 0.250000 0.125000
vt 0.375000 0.125000
vt 0.500000 0.125000
vt 0.625000 0.125000
vt 0.750000 0.125000
vt 0.875000 0.125000
vt 1.000000 0.125000
vt 0.000000 0.250000
vt 0.125000 0.250000
vt 0.250000 0.250000
vt 0.375000 0.250000
vt 0.500000 0.250000
vt 0.625000 0.250000
vt 0.750000 0.250000
vt 0.875000 0.250000
vt 1.000000 0.250000
vt 0.000000 0.375000
vt 0.125000 0.375000
vt 0.250000 0.375000
vt 0.375000 0.375000
vt 0.500000 0.375000
vt 0.625000 0.375000
vt 0.750000 0.375000
vt 0.875000 0.375000
vt 1.000000 0.375000
vt 0.000000 0.500000
vt 0.125000 0.500000
vt 0.250000 0.500000
vt 0.375000 0.500000
vt 0.500000 0.500000
vt 0.625000 0.500000
vt 0.750000 0.500000
vt 0.875000 0.500000
vt 1.000000 0.500000
vt 0.000000 0.625000
vt 0.125000 0.625000
vt 0.250000 0.625000
vt 0.375000 0.625000
vt 0.500000 0.625000
vt 0.625000 0.625000
vt 0.750000 0.625000
vt 0.875000 0.625000
vt 1.000000 0.625000
vt 0.000000 0.750000
vt 0.125000 0.750000
vt 0.250000 0.750000
vt 0.375000 0.750000
vt 0.500000 0.750000
vt 0.625000 0.750000
vt 0.750000 0.750000
vt 0.875000 0.750000
vt 1.000000 0.750000
vt 0.000000 0.875000
vt 0.125000 0.875000
vt 0.250000 0.875000
vt 0.375000 0.875000
vt 0.500000 0.875000
vt 0.625000 0.875000
vt 0.750000 0.875000
vt 0.875000 0.875000
vt 1.000000 0.875000
vt 0.062500 0.000000
vt 0.187500 0.000000
vt 0.312500 0.000000
vt 0.437500 0.000000
vt 0.562500 0.000000
vt 0.687500 0.000000
vt 0.812500 0.000000
vt 0.937500 0.000000
vt 0.062500 1.000000
vt 0.187500 1.000000
vt 0.312500 1.000000
vt 0.437500 1.000000
vt 0.562500 1.000000
vt 0.687500 1.000000
vt 0.812500 1.000000
vt 0.937500 1.000000
vt 0.500000 0.375000
vt 0.625000 0.375000
vt 0.500000 0.500000
vt 0.750000 0.375000
vt 0.750000 0.500000
vt 0.625000 0.625000
vt 0.500000 0.625000
vt 0.750000 0.625000
vt 0.000000 0.875000
vt 0.125000 0.875000
vt 0.062500 1.000000
vt 0.250000 0.875000
vt 0.187500 1.000000
vt 0.250000 0.375000
vt 0.375000 0.375000
vt 0.375000 0.500000
vt 0.250000 0.500000
vt 0.875000 0.375000
vt 1.000000 0.375000
vt 1.000000 0.500000
vt 0.875000 0.500000
vt 0.000000 0.000000
vt 1.000000 0.000000
vt 1.000000 1.000000
vt 0.000000 1.000000
vt 0.000000 0.000000
vt 1.000000 0.000000
vt 1.000000 1.000000
vt 0.000000 1.000000
vt 0.000000 0.000000
vt 1.000000 0.000000
vt 1.000000 1.000000
vt 0.000000 1.000000
vt 0.000000 0.000000
vt 1.000000 0.000000
vt 1.000000 1.000000
vt 0.000000 1.000000
vt 1.000000 0.447562
vt 1.000000 0.447562
vt 0.000000 0.447562
vt 0.000000 0.447562
vt 0.000000 0.250000
vt 0.250000 0.250000
vt 0.250000 0.500000
vt 0.000000 0.500000
vt 0.500000 0.250000
vt 0.500000 0.500000
vt 0.750000 0.250000
vt 0.750000 0.500000
vt 1.000000 0.250000
vt 1.000000 0.500000
vt 0.125000 0.000000
vt 0.375000 0.000000
vt 0.625000 0.000000
vt 0.875000 0.000000
vt 0.000000 0.250000
vt 0.250000 0.250000
vt 0.250000 0.500000
vt 0.000000 0.500000
vt 0.500000 0.250000
vt 0.500000 0.500000
vt 0.750000 0.250000
vt 0.750000 0.500000
vt 1.000000 0.250000
vt 1.000000 0.500000
vt 0.125000 0.000000
vt 0.375000 0.000000
vt 0.625000 0.000000
vt 0.875000 0.000000
vn 0.131325 -0.871773 0.471981
vn 0.228258 -0.743608 0.628447
vn 0.228258 -0.743608 0.628447
vn 0.313709 -0.578036 0.753300
vn -0.131325 -0.871773 0.471981
vn -0.228258 -0.743608 0.628447
vn -0.228258 -0.743608 0.628447
vn -0.313709 -0.578036 0.753300
vn -0.686322 -0.660118 0.305297
vn -0.576399 -0.695307 0.429316
vn -0.576399 -0.695307 0.429316
vn -0.449932 -0.710540 0.541013
vn -0.714148 -0.686882 0.134857
vn -0.714148 -0.686882 0.134858
vn -0.714148 -0.686882 0.134858
vn -0.714148 -0.686882 0.134858
vn -0.362661 -0.842113 0.399153
vn -0.362661 -0.842113 0.399154
vn -0.362661 -0.842113 0.399154
vn -0.362661 -0.842113 0.399154
vn 0.362661 -0.842113 0.399154
vn 0.362661 -0.842113 0.399154
vn 0.362661 -0.842113 0.399154
vn 0.362661 -0.842113 0.399154
vn 0.714148 -0.686882 0.134858
vn 0.714148 -0.686882 0.134858
vn 0.714148 -0.686882 0.134858
vn 0.714148 -0.686882 0.134858
vn 0.686322 -0.660118 0.305297
vn 0.576399 -0.695307 0.429316
vn 0.576399 -0.695307 0.429316
vn 0.449932 -0.710540 0.541013
vn 0.337305 -0.863288 0.375444
vn 0.208054 -0.965086 0.159131
vn 0.208054 -0.965086 0.159131
vn 0.063435 -0.995602 -0.068936
vn -0.337305 -0.863288 0.375444
vn -0.208053 -0.965086 0.159131
vn -0.208053 -0.965086 0.159131
vn -0.063435 -0.995602 -0.068936
vn -0.621753 -0.642188 0.448350
vn -0.773641 -0.524183 0.355966
vn -0.773641 -0.524183 0.355966
vn -0.890305 -0.382311 0.247376
vn -0.905336 -0.388766 0.170961
vn -0.905336 -0.388766 0.170961
vn -0.905336 -0.388766 0.170961
vn -0.905336 -0.388766 0.170961
vn -0.551642 -0.571890 0.607151
vn -0.618546 -0.736324 0.274279
vn -0.618546 -0.736324 0.274279
vn -0.597418 -0.795965 -0.097629
vn 0.551643 -0.571890 0.607151
vn 0.618546 -0.736324 0.274279
vn 0.618546 -0.736324 0.274279
vn 0.597418 -0.795965 -0.097629
vn 0.905336 -0.388766 0.170961
vn 0.905336 -0.388766 0.170961
vn 0.905336 -0.388766 0.170961
vn 0.905336 -0.388766 0.170961
vn 0.621753 -0.642188 0.448350
vn 0.773641 -0.524183 0.355966
vn 0.773641 -0.524183 0.355966
vn 0.890305 -0.382311 0.247376
vn -0.929142 -0.325439 -0.175457
vn -0.929142 -0.325439 -0.175457
vn -0.929142 -0.325439 -0.175457
vn -0.929142 -0.325439 -0.175457
vn -0.974971 -0.124636 0.184111
vn -0.974971 -0.124635 0.184111
vn -0.974971 -0.124635 0.184111
vn -0.974971 -0.124635 0.184111
vn -0.207652 -0.049776 0.976935
vn -0.248306 -0.057303 0.966985
vn -0.248306 -0.057303 0.966985
vn -0.288511 -0.064727 0.955286
vn 0.207652 -0.049776 0.976935
vn 0.248306 -0.057303 0.966985
vn 0.248306 -0.057303 0.966985
vn 0.288510 -0.064727 0.955287
vn 0.974971 -0.124635 0.184111
vn 0.974971 -0.124635 0.184111
vn 0.974971 -0.124635 0.184111
vn 0.974971 -0.124635 0.184111
vn 0.932163 -0.316364 -0.176027
vn 0.932163 -0.316364 -0.176027
vn 0.932163 -0.316364 -0.176027
vn 0.932163 -0.316364 -0.176027
vn 0.658433 0.203205 -0.724688
vn 0.658433 0.203206 -0.724688
vn 0.658433 0.203206 -0.724688
vn 0.658433 0.203206 -0.724688
vn -0.658433 0.203206 -0.724688
vn -0.658433 0.203206 -0.724688
vn -0.658433 0.203206 -0.724688
vn -0.658434 0.203206 -0.724688
vn -0.974971 0.124635 -0.184111
vn -0.974971 0.124635 -0.184111
vn -0.974971 0.124635 -0.184111
vn -0.974971 0.124635 -0.184111
vn -0.974971 0.124635 0.184111
vn -0.974971 0.124635 0.184111
vn -0.974971 0.124635 0.184111
vn -0.974971 0.124635 0.184111
vn -0.288511 0.064727 0.955286
vn -0.248306 0.057303 0.966985
vn -0.248306 0.057303 0.966985
vn -0.207652 0.049776 0.976935
vn 0.288510 0.064727 0.955287
vn 0.248306 0.057303 0.966985
vn 0.248306 0.057303 0.966985
vn 0.207652 0.049776 0.976935
vn 0.974971 0.124635 0.184111
vn 0.974971 0.124635 0.184111
vn 0.974971 0.124635 0.184111
vn 0.974971 0.124635 0.184111
vn 0.974971 0.124635 -0.184111
vn 0.974971 0.124635 -0.184111
vn 0.974971 0.124635 -0.184111
vn 0.974971 0.124635 -0.184111
vn 0.551642 0.571890 -0.607151
vn 0.551643 0.571890 -0.607151
vn 0.551643 0.571890 -0.607151
vn 0.551643 0.571890 -0.607151
vn -0.551642 0.571890 -0.607152
vn -0.551642 0.571890 -0.607151
vn -0.551642 0.571890 -0.607151
vn -0.551643 0.571890 -0.607151
vn -0.905336 0.388766 -0.170961
vn -0.905336 0.388766 -0.170961
vn -0.905336 0.388766 -0.170961
vn -0.905336 0.388766 -0.170961
vn -0.905336 0.388766 0.170961
vn -0.905336 0.388766 0.170961
vn -0.905336 0.388766 0.170961
vn -0.905336 0.388766 0.170961
vn -0.610835 0.707254 0.355910
vn -0.587511 0.646473 0.486726
vn -0.587511 0.646473 0.486726
vn -0.551643 0.571890 0.607151
vn 0.610836 0.707254 0.355909
vn 0.587511 0.646474 0.486726
vn 0.587511 0.646474 0.486726
vn 0.551642 0.571890 0.607151
vn 0.905336 0.388767 0.170961
vn 0.905336 0.388766 0.170961
vn 0.905336 0.388766 0.170961
vn 0.905336 0.388766 0.170961
vn 0.905336 0.388767 -0.170961
vn 0.905336 0.388766 -0.170961
vn 0.905336 0.388766 -0.170961
vn 0.905336 0.388766 -0.170961
vn 0.362661 0.842112 -0.399154
vn 0.362661 0.842112 -0.399154
vn 0.362661 0.842112 -0.399154
vn 0.362661 0.842113 -0.399153
vn -0.362661 0.842112 -0.399154
vn -0.362661 0.842112 -0.399154
vn -0.362661 0.842112 -0.399154
vn -0.362661 0.842112 -0.399155
vn -0.714148 0.686881 -0.134858
vn -0.714148 0.686881 -0.134858
vn -0.714148 0.686881 -0.134858
vn -0.714148 0.686882 -0.134857
vn -0.714148 0.686881 0.134858
vn -0.714148 0.686882 0.134858
vn -0.714148 0.686882 0.134858
vn -0.714148 0.686882 0.134857
vn -0.362661 0.842112 0.399154
vn -0.362661 0.842112 0.399154
vn -0.362661 0.842112 0.399154
vn -0.362661 0.842112 0.399155
vn 0.362661 0.842112 0.399154
vn 0.362661 0.842112 0.399154
vn 0.362661 0.842112 0.399154
vn 0.362661 0.842113 0.399153
vn 0.714148 0.686881 0.134858
vn 0.714148 0.686881 0.134858
vn 0.714148 0.686881 0.134858
vn 0.714148 0.686881 0.134858
vn 0.714148 0.686881 -0.134858
vn 0.714148 0.686881 -0.134858
vn 0.714148 0.686881 -0.134858
vn 0.714148 0.686881 -0.134858
vn 0.139261 -0.874279 0.465019
vn 0.139261 -0.874279 0.465019
vn 0.139261 -0.874279 0.465019
vn -0.139261 -0.874279 0.465019
vn -0.139261 -0.874279 0.465019
vn -0.139261 -0.874279 0.465019
vn -0.256483 -0.828672 0.497513
vn -0.256483 -0.828672 0.497513
vn -0.256483 -0.828672 0.497513
vn -0.295212 -0.953804 0.055747
vn -0.295212 -0.953804 0.055747
vn -0.295212 -0.953804 0.055747
vn -0.125935 -0.982308 0.138607
vn -0.125935 -0.982308 0.138607
vn -0.125935 -0.982308 0.138607
vn 0.125935 -0.982308 0.138607
vn 0.125935 -0.982308 0.138607
vn 0.125935 -0.982308 0.138607
vn 0.295212 -0.953804 0.055747
vn 0.295212 -0.953804 0.055747
vn 0.295212 -0.953804 0.055747
vn 0.256483 -0.828672 0.497513
vn 0.256483 -0.828672 0.497513
vn 0.256483 -0.828672 0.497513
vn 0.358210 0.931939 -0.056347
vn 0.358210 0.931939 -0.056347
vn 0.358210 0.931939 -0.056347
vn -0.299103 0.951937 -0.065975
vn -0.299103 0.951937 -0.065975
vn -0.299103 0.951937 -0.065975
vn -0.295211 0.953804 -0.055746
vn -0.295211 0.953804 -0.055746
vn -0.295211 0.953804 -0.055746
vn -0.295211 0.953804 0.055746
vn -0.295211 0.953804 0.055746
vn -0.295211 0.953804 0.055746
vn -0.125935 0.982308 0.138606
vn -0.125935 0.982308 0.138606
vn -0.125935 0.982308 0.138606
vn 0.125935 0.982308 0.138606
vn 0.125935 0.982308 0.138606
vn 0.125935 0.982308 0.138606
vn 0.295211 0.953804 0.055749
vn 0.295211 0.953804 0.055749
vn 0.295211 0.953804 0.055749
vn 0.295211 0.953804 -0.055749
vn 0.295211 0.953804 -0.055749
vn 0.295211 0.953804 -0.055749
vn 0.121004 -0.650208 -0.750058
vn 0.139175 -0.652185 -0.745174
vn 0.139175 -0.652185 -0.745174
vn 0.157295 -0.653929 -0.740024
vn -0.982453 -0.117522 0.144824
vn -0.989244 -0.068666 0.129158
vn -0.989244 -0.068666 0.129158
vn -0.993385 -0.019626 0.113146
vn -0.121004 -0.650208 -0.750058
vn -0.139175 -0.652185 -0.745174
vn -0.139175 -0.652185 -0.745174
vn -0.157295 -0.653929 -0.740024
vn 0.982453 -0.117522 0.144824
vn 0.989244 -0.068666 0.129158
vn 0.989244 -0.068666 0.129158
vn 0.993384 -0.019626 0.113146
vn 0.407767 0.577593 -0.707186
vn 0.291271 0.581350 -0.759732
vn 0.291271 0.581350 -0.759732
vn 0.170014 0.575604 -0.799859
vn -0.982453 0.117522 0.144824
vn -0.989244 0.068666 0.129158
vn -0.989244 0.068666 0.129158
vn -0.993384 0.019626 0.113146
vn 0.982453 0.117522 0.144824
vn 0.989244 0.068666 0.129158
vn 0.989244 0.068666 0.129158
vn 0.993385 0.019626 0.113146
vn -0.407767 0.577593 -0.707186
vn -0.291271 0.581350 -0.759732
vn -0.291271 0.581350 -0.759732
vn -0.170014 0.575605 -0.799859
vn 0.492088 0.681553 -0.541604
vn 0.651431 0.656881 -0.379663
vn 0.651431 0.656881 -0.379663
vn 0.776754 0.597905 -0.197896
vn 0.828984 -0.338212 0.445419
vn 0.889692 -0.335165 0.310020
vn 0.889692 -0.335165 0.310020
vn 0.930802 -0.324736 0.167792
vn -0.487087 0.689451 -0.536100
vn -0.631007 0.671085 -0.389199
vn -0.631007 0.671085 -0.389199
vn -0.748026 0.624110 -0.225707
vn -0.836083 -0.320637 0.445148
vn -0.900294 -0.317415 0.297856
vn -0.900294 -0.317415 0.297856
vn -0.941252 -0.305995 0.142871
vn -0.793829 -0.480694 0.372517
vn 0.143624 -0.813515 0.563529
vn 0.143624 -0.813515 0.563529
vn 0.933708 -0.311610 0.176319
vn 0.844117 0.107907 0.525188
vn 0.814866 0.191147 0.547227
vn 0.814866 0.191147 0.547227
vn 0.778875 0.272806 0.564739
vn -0.965111 0.188004 -0.182249
vn -0.965111 0.188004 -0.182249
vn -0.965111 0.188004 -0.182249
vn -0.965111 0.188004 -0.182249
vn -0.885290 -0.047505 -0.462607
vn -0.952913 -0.158529 -0.258508
vn -0.952913 -0.158529 -0.258508
vn -0.964737 -0.260271 -0.039271
vn -0.950026 -0.255474 0.179400
vn -0.099454 -0.818577 0.565721
vn -0.099454 -0.818577 0.565721
vn 0.869448 -0.407736 0.278946
vn 0.868304 -0.048781 -0.493629
vn 0.949536 -0.154597 -0.272912
vn 0.949536 -0.154597 -0.272912
vn 0.967614 -0.250130 -0.034043
vn 0.969826 0.160929 -0.183139
vn 0.969826 0.160929 -0.183139
vn 0.969826 0.160929 -0.183139
vn 0.969826 0.160929 -0.183139
vn -0.818192 0.104594 0.565352
vn -0.784239 0.179287 0.593992
vn -0.784239 0.179287 0.593992
vn -0.744363 0.252626 0.618145
vn 0.298771 -0.895881 -0.328835
vn 0.032419 -0.721224 -0.691943
vn 0.032419 -0.721224 -0.691943
vn -0.241496 -0.378307 -0.893624
vn -0.298771 -0.895881 -0.328835
vn -0.032269 -0.721080 -0.692100
vn -0.032269 -0.721080 -0.692100
vn 0.241769 -0.377878 -0.893732
vn -0.315757 -0.034037 -0.948229
vn -0.260111 0.215584 -0.941205
vn -0.570865 -0.183698 -0.800230
vn -0.710591 0.392494 -0.583960
vn 0.315919 -0.034022 -0.948176
vn 0.570961 -0.183615 -0.800181
vn 0.260207 0.215694 -0.941153
vn 0.710606 0.392518 -0.583925
vn 0.255255 0.642774 -0.722278
vn 0.672484 0.032810 -0.739384
vn -0.255178 0.642848 -0.722241
vn -0.672479 0.033025 -0.739379
vn -0.006138 0.997659 0.068112
vn -0.006137 0.997659 0.068112
vn -0.006137 0.997659 0.068112
vn -0.006137 0.997659 0.068112
vn 0.073491 0.191783 -0.978682
vn 0.073491 0.191783 -0.978682
vn 0.073491 0.191783 -0.978682
vn 0.073491 0.191783 -0.978682
vn 0.565614 -0.806357 -0.172827
vn 0.565614 -0.806357 -0.172827
vn 0.565614 -0.806357 -0.172827
vn 0.565614 -0.806357 -0.172827
vn 0.485987 -0.000481 0.873966
vn 0.485987 -0.000481 0.873966
vn 0.485987 -0.000481 0.873966
vn 0.485986 -0.000481 0.873966
vn 0.674637 0.732310 -0.092670
vn 0.674637 0.732310 -0.092670
vn 0.674637 0.732310 -0.092670
vn 0.714590 0.327959 -0.617903
vn 0.714590 0.327959 -0.617903
vn 0.714590 0.327959 -0.617903
vn 0.961514 -0.172861 -0.213563
vn 0.961514 -0.172861 -0.213563
vn 0.961514 -0.172861 -0.213563
vn 0.921561 0.231490 0.311669
vn 0.921561 0.231490 0.311669
vn 0.921561 0.231490 0.311669
vn -0.223734 0.492065 -0.841318
vn -0.223733 0.492065 -0.841317
vn -0.223733 0.492065 -0.841317
vn -0.223733 0.492066 -0.841317
vn -0.093152 0.908106 0.408248
vn -0.093152 0.908106 0.408247
vn -0.093152 0.908106 0.408247
vn -0.093152 0.908106 0.408247
vn -0.362139 -0.361632 0.859114
vn -0.362139 -0.361632 0.859114
vn -0.362139 -0.361632 0.859114
vn -0.362139 -0.361632 0.859114
vn -0.492720 -0.777673 -0.390451
vn -0.492721 -0.777673 -0.390451
vn -0.492721 -0.777673 -0.390451
vn -0.492721 -0.777673 -0.390451
vn -0.821949 0.404894 -0.400575
vn -0.821949 0.404894 -0.400575
vn -0.821949 0.404894 -0.400575
vn -0.756429 0.613644 0.226397
vn -0.756429 0.613644 0.226397
vn -0.756429 0.613644 0.226397
vn -0.891394 -0.023451 0.452621
vn -0.891394 -0.023451 0.452621
vn -0.891394 -0.023451 0.452621
vn -0.956914 -0.232200 -0.174352
vn -0.956914 -0.232200 -0.174352
vn -0.956914 -0.232200 -0.174352
f 1/1/1 2/2/2 9/10/3
f 9/10/3 2/2/2 10/11/4
f 3/3/5 11/12/6 2/2/7
f 2/2/7 11/12/6 10/11/8
f 4/4/9 12/13/10 3/3/11
f 3/3/11 12/13/10 11/12/12
f 4/4/13 5/5/14 12/13/15
f 12/13/15 5/5/14 13/14/16
f 5/5/17 6/6/18 13/14/19
f 13/14/19 6/6/18 14/15/20
f 7/7/21 15/16/22 6/6/23
f 6/6/23 15/16/22 14/15/24
f 8/8/25 16/17/26 7/7/27
f 7/7/27 16/17/26 15/16/28
f 8/8/29 1/9/30 16/17/31
f 16/17/31 1/9/30 9/18/32
f 9/10/33 10/11/34 17/19/35
f 17/19/35 10/11/34 18/20/36
f 11/12/37 19/21/38 10/11/39
f 10/11/39 19/21/38 18/20/40
f 11/12/41 12/13/42 19/21/43
f 19/21/43 12/13/42 20/22/44
f 12/13/45 13/14/46 20/22/47
f 20/22/47 13/14/46 21/23/48
f 13/14/49 14/15/50 21/23/51
f 21/23/51 14/15/50 22/24/52
f 15/16/53 23/25/54 14/15/55
f 14/15/55 23/25/54 22/24/56
f 16/17/57 24/26/58 15/16/59
f 15/16/59 24/26/58 23/25/60
f 9/18/61 17/27/62 16/17/63
f 16/17/63 17/27/62 24/26/64
f 72/94/65 73/95/66 71/93/67
f 71/93/67 73/95/66 74/96/68
f 20/22/69 21/23/70 28/31/71
f 28/31/71 21/23/70 29/32/72
f 58/80/73 59/81/74 61/82/75
f 61/82/75 59/81/74 60/33/76
f 62/83/77 63/84/78 59/81/79
f 59/81/79 63/84/78 60/33/80
f 24/26/81 31/35/82 23/25/83
f 23/25/83 31/35/82 30/34/84
f 75/97/85 76/98/86 78/100/87
f 78/100/87 76/98/86 77/99/88
f 26/29/89 33/38/90 25/28/91
f 25/28/91 33/38/90 32/37/92
f 26/29/93 27/30/94 33/38/95
f 33/38/95 27/30/94 34/39/96
f 27/30/97 28/31/98 34/39/99
f 34/39/99 28/31/98 35/40/100
f 29/32/101 36/41/102 28/31/103
f 28/31/103 36/41/102 35/40/104
f 60/33/105 64/85/106 61/82/107
f 61/82/107 64/85/106 65/86/108
f 60/33/109 63/84/110 64/85/111
f 64/85/111 63/84/110 66/87/112
f 30/34/113 31/35/114 38/43/115
f 38/43/115 31/35/114 39/44/116
f 25/36/117 32/45/118 31/35/119
f 31/35/119 32/45/118 39/44/120
f 33/38/121 41/47/122 32/37/123
f 32/37/123 41/47/122 40/46/124
f 33/38/125 34/39/126 41/47/127
f 41/47/127 34/39/126 42/48/128
f 34/39/129 35/40/130 42/48/131
f 42/48/131 35/40/130 43/49/132
f 36/41/133 44/50/134 35/40/135
f 35/40/135 44/50/134 43/49/136
f 37/42/137 45/51/138 36/41/139
f 36/41/139 45/51/138 44/50/140
f 37/42/141 38/43/142 45/51/143
f 45/51/143 38/43/142 46/52/144
f 38/43/145 39/44/146 46/52/147
f 46/52/147 39/44/146 47/53/148
f 32/45/149 40/54/150 39/44/151
f 39/44/151 40/54/150 47/53/152
f 41/47/153 49/56/154 40/46/155
f 40/46/155 49/56/154 48/55/156
f 41/47/157 42/48/158 49/56/159
f 49/56/159 42/48/158 50/57/160
f 42/48/161 43/49/162 50/57/163
f 50/57/163 43/49/162 51/58/164
f 44/50/165 52/59/166 43/49/167
f 43/49/167 52/59/166 51/58/168
f 45/51/169 53/60/170 44/50/171
f 44/50/171 53/60/170 52/59/172
f 45/51/173 46/52/174 53/60/175
f 53/60/175 46/52/174 54/61/176
f 46/52/177 47/53/178 54/61/179
f 54/61/179 47/53/178 55/62/180
f 40/54/181 48/63/182 47/53/183
f 47/53/183 48/63/182 55/62/184
f 2/2/185 1/1/186 56/64/187
f 3/3/188 2/2/189 56/65/190
f 4/4/191 3/3/192 56/66/193
f 5/5/194 4/4/195 56/67/196
f 6/6/197 5/5/198 56/68/199
f 7/7/200 6/6/201 56/69/202
f 8/8/203 7/7/204 56/70/205
f 1/9/206 8/8/207 56/71/208
f 67/88/209 68/89/210 69/90/211
f 68/89/212 70/91/213 69/92/214
f 50/57/215 51/58/216 57/74/217
f 51/58/218 52/59/219 57/75/220
f 52/59/221 53/60/222 57/76/223
f 53/60/224 54/61/225 57/77/226
f 54/61/227 55/62/228 57/78/229
f 55/62/230 48/63/231 57/79/232
f 21/23/233 22/24/234 58/80/235
f 58/80/235 22/24/234 59/81/236
f 29/32/237 21/23/238 61/82/239
f 61/82/239 21/23/238 58/80/240
f 23/25/241 62/83/242 22/24/243
f 22/24/243 62/83/242 59/81/244
f 30/34/245 63/84/246 23/25/247
f 23/25/247 63/84/246 62/83/248
f 36/41/249 65/86/250 37/42/251
f 37/42/251 65/86/250 64/85/252
f 29/32/253 61/82/254 36/41/255
f 36/41/255 61/82/254 65/86/256
f 30/34/257 38/43/258 63/84/259
f 63/84/259 38/43/258 66/87/260
f 38/43/261 37/42/262 66/87/263
f 66/87/263 37/42/262 64/85/264
f 49/56/265 68/89/266 48/55/267
f 48/55/267 68/89/266 67/88/268
f 48/55/269 67/88/270 57/72/271
f 57/72/271 67/88/270 69/90/272
f 49/56/273 50/57/274 68/89/275
f 68/89/275 50/57/274 70/91/276
f 50/57/277 57/73/278 70/91/279
f 70/91/279 57/73/278 69/92/280
f 19/21/281 20/22/282 71/93/283
f 20/22/282 72/94/284 71/93/283
f 28/31/285 73/95/286 20/22/287
f 20/22/287 73/95/286 72/94/288
f 27/30/289 74/96/290 28/31/291
f 28/31/291 74/96/290 73/95/292
f 27/30/293 19/21/294 74/96/295
f 19/21/294 71/93/296 74/96/295
f 75/97/297 24/26/298 76/98/299
f 24/26/298 17/27/300 76/98/299
f 25/36/301 77/99/302 17/27/303
f 17/27/303 77/99/302 76/98/304
f 25/36/305 31/35/306 77/99/307
f 77/99/307 31/35/306 78/100/308
f 31/35/309 24/26/310 78/100/311
f 78/100/311 24/26/310 75/97/312
f 26/101/313 25/102/314 80/104/315
f 80/104/315 25/102/314 79/103/316
f 26/106/317 80/107/318 27/105/319
f 27/105/319 80/107/318 81/108/320
f 79/110/321 82/117/322 80/109/323
f 80/109/323 82/117/322 83/119/324
f 81/113/325 80/114/326 84/120/327
f 84/120/327 80/114/326 83/118/328
f 83/119/324 82/117/322 18/112/329
f 18/112/329 82/117/322 17/111/330
f 83/118/328 18/115/331 84/120/327
f 84/120/327 18/115/331 19/116/332
f 86/122/333 90/123/334 85/121/335
f 85/121/335 90/123/334 89/124/336
f 86/122/337 87/125/338 90/123/339
f 90/123/339 87/125/338 91/126/340
f 88/127/341 92/128/342 87/125/343
f 87/125/343 92/128/342 91/126/344
f 88/127/345 85/129/346 92/128/347
f 92/128/347 85/129/346 89/130/348
f 86/122/349 85/121/350 93/131/351
f 87/125/352 86/122/353 93/132/354
f 88/127/355 87/125/356 93/133/357
f 85/129/358 88/127/359 93/134/360
f 95/136/361 99/137/362 94/135/363
f 94/135/363 99/137/362 98/138/364
f 95/136/365 96/139/366 99/137/367
f 99/137/367 96/139/366 100/140/368
f 97/141/369 101/142/370 96/139/371
f 96/139/371 101/142/370 100/140/372
f 97/141/373 94/143/374 101/142/375
f 101/142/375 94/143/374 98/144/376
f 95/136/377 94/135/378 102/145/379
f 96/139/380 95/136/381 102/146/382
f 97/141/383 96/139/384 102/147/385
f 94/143/386 97/141/387 102/148/388
